<svg xmlns="http://www.w3.org/2000/svg" xmlns:xlink="http://www.w3.org/1999/xlink" width="37.443" height="37.444" viewBox="0 0 37.443 37.444">
  <defs>
    <linearGradient id="linear-gradient" x1="0.5" x2="0.5" y2="1" gradientUnits="objectBoundingBox">
      <stop offset="0" stop-color="#2fc7aa"/>
      <stop offset="1" stop-color="#3c8ef9"/>
    </linearGradient>
  </defs>
  <g id="Driver_profile" data-name="Driver profile" transform="translate(0 0)">
    <path id="Path_73" data-name="Path 73" d="M15.92,31.7l-5.586,3.047a5.02,5.02,0,0,0-.9.638,18.71,18.71,0,0,0,24.04.062,4.956,4.956,0,0,0-.985-.66L26.51,31.8a2.281,2.281,0,0,1-1.261-2.04V27.414a9.037,9.037,0,0,0,.566-.728,13.764,13.764,0,0,0,1.859-3.747,1.879,1.879,0,0,0,1.332-1.787V18.646a1.87,1.87,0,0,0-.626-1.388V13.637S29.125,8,21.493,8,14.6,13.637,14.6,13.637v3.621a1.868,1.868,0,0,0-.626,1.388v2.505a1.878,1.878,0,0,0,.866,1.576,12.432,12.432,0,0,0,2.265,4.686V29.7A2.284,2.284,0,0,1,15.92,31.7Z" transform="translate(-2.77 -2.348)" fill="#e7eced"/>
    <g id="Group_58" data-name="Group 58" transform="translate(0 0)">
      <path id="Path_74" data-name="Path 74" d="M19.042,0A18.71,18.71,0,0,0,6.675,33.036a4.975,4.975,0,0,1,.888-.632l5.586-3.047a2.282,2.282,0,0,0,1.189-2V25.065a12.42,12.42,0,0,1-2.265-4.686,1.879,1.879,0,0,1-.866-1.576V16.3a1.87,1.87,0,0,1,.626-1.388V11.288s-.744-5.636,6.888-5.636,6.888,5.636,6.888,5.636v3.621a1.868,1.868,0,0,1,.626,1.388V18.8A1.879,1.879,0,0,1,24.9,20.59a13.764,13.764,0,0,1-1.859,3.747,9.035,9.035,0,0,1-.566.728v2.347a2.28,2.28,0,0,0,1.261,2.04l5.982,2.991a4.981,4.981,0,0,1,.982.658A18.718,18.718,0,0,0,19.042,0Z" transform="translate(0 0)" fill="url(#linear-gradient)"/>
    </g>
  </g>
</svg>
