<svg xmlns="http://www.w3.org/2000/svg" xmlns:xlink="http://www.w3.org/1999/xlink" width="277.262" height="80.818" viewBox="0 0 277.262 80.818">
  <defs>
    <linearGradient id="linear-gradient" x1="0.5" x2="0.5" y2="1" gradientUnits="objectBoundingBox">
      <stop offset="0" stop-color="#2fc7aa"/>
      <stop offset="1" stop-color="#3c8ef9"/>
    </linearGradient>
  </defs>
  <g id="fleet_express" data-name="fleet express" transform="translate(22068.316 13162.316)">
    <g id="Group_16468" data-name="Group 16468" transform="translate(2020.137 -245.922)">
      <path id="Path_19036" data-name="Path 19036" d="M9260.406,11835a40.421,40.421,0,0,1,38.9,29.5h-6.122v-.025l-23.407-.143c-9.8-.259-15.92,3.36-20.761,7.089.656-6.921,4.641-16.23,14.353-17.626l23.978-.027c-.483-.686.142.2-.4-.427a34.737,34.737,0,1,0,7.205,14.78h5.981a38.506,38.506,0,0,1,.683,7.289,40.408,40.408,0,1,1-40.411-40.408Z" transform="translate(-33308.453 -24751.395)" fill-rule="evenodd" fill="url(#linear-gradient)"/>
      <path id="Path_19038" data-name="Path 19038" d="M10218.511,13041.869l.032-3.87,11.335,9.654-11.335,9.2-.057-4.1h-12.532c-4.3-.141-6.238,1.339-5.9,4.33v15.09h-11.7V13055.6c-.343-5.61,3.9-13.757,18.395-13.7Z" transform="translate(-34249.215 -25919.535)" fill-rule="evenodd" fill="url(#linear-gradient)"/>
    </g>
    <g id="Group_16590" data-name="Group 16590" transform="translate(0 -4.507)">
      <path id="Path_19037" data-name="Path 19037" d="M7513.738,15001.057v-12.821h23.951v-6.383h-23.951a9.214,9.214,0,0,1,.338-2.544,4.539,4.539,0,0,1,1.13-2.033,5.614,5.614,0,0,1,2.146-1.357,10.284,10.284,0,0,1,3.363-.48h16.974v-6.38h-19.969c-4.011,0-6.977,1.412-8.869,4.206q-2.839,4.238-2.851,11.7v16.1Zm60.5,0h-19.46a13.3,13.3,0,0,1-5.707-1.1,9.409,9.409,0,0,1-3.782-3.164,13.7,13.7,0,0,1-2.119-5.054,32.535,32.535,0,0,1-.62-6.779V14969h7.708v19.458c0,4.068,2.345,6.1,7,6.1h16.976Zm34.909,0v-6.494h-16.975q-3.557,0-5.253-1.61a6.037,6.037,0,0,1-1.723-4.662h23.95v-6.437H7585.2a9.223,9.223,0,0,1,.311-2.544,4.792,4.792,0,0,1,1.129-2.033,5.6,5.6,0,0,1,2.146-1.357,10.581,10.581,0,0,1,3.39-.48h16.975v-6.38h-20c-4.012,0-6.949,1.412-8.84,4.206-1.922,2.825-2.855,6.724-2.855,11.7a30.758,30.758,0,0,0,.649,6.779,13.755,13.755,0,0,0,2.092,5.054,9.4,9.4,0,0,0,3.785,3.164,13.372,13.372,0,0,0,5.7,1.1Zm37.057,0v-6.494h-16.976q-3.559,0-5.253-1.61a6.037,6.037,0,0,1-1.723-4.662H7646.2v-6.437h-23.951a10.445,10.445,0,0,1,.311-2.544,4.792,4.792,0,0,1,1.129-2.033,5.829,5.829,0,0,1,2.146-1.357,10.577,10.577,0,0,1,3.39-.48H7646.2v-6.38h-19.969c-4.011,0-6.976,1.412-8.868,4.206-1.893,2.825-2.853,6.724-2.853,11.7a32.543,32.543,0,0,0,.649,6.779,13.7,13.7,0,0,0,2.091,5.054,9.4,9.4,0,0,0,3.783,3.164,13.425,13.425,0,0,0,5.733,1.1Zm36.744-25.619h-12.087v25.619h-7.512v-25.619h-11.778v-6.38h31.377Z" transform="translate(-29474.002 -28122.494)" fill="#1e1e2d"/>
      <path id="Path_19035" data-name="Path 19035" d="M8866,16322.31V16297h18.271v2.967h-14.91v7.791h13.961v2.965H8869.36v8.622H8884.9v2.969Zm23.767,0,6.723-9.491-6.205-8.862h3.8l2.927,4.353c.512.791.949,1.461,1.267,1.978.513-.71.988-1.388,1.381-1.978l3.047-4.353h3.839l-6.254,8.862,6.646,9.491h-3.8l-3.795-5.654-.87-1.344-4.906,7Zm22.583,7.039v-25.393h2.81v2.416a7.128,7.128,0,0,1,2.294-2.1,6.065,6.065,0,0,1,3.043-.716,7.543,7.543,0,0,1,4.156,1.229,7.266,7.266,0,0,1,2.688,3.4,12.037,12.037,0,0,1,.908,4.823,12.312,12.312,0,0,1-.987,5.063,7.6,7.6,0,0,1-2.927,3.44,7.711,7.711,0,0,1-4.072,1.185,5.847,5.847,0,0,1-2.769-.629,5.95,5.95,0,0,1-2.017-1.667v8.941Zm2.81-16.1q0,3.56,1.423,5.22a4.465,4.465,0,0,0,7.04-.038,8.61,8.61,0,0,0,1.463-5.419c0-2.336-.473-4.116-1.463-5.261a4.325,4.325,0,0,0-3.4-1.738,4.5,4.5,0,0,0-3.521,1.857A8.244,8.244,0,0,0,8915.158,16313.252Zm19.578,9.058v-18.354h2.807v2.811a7.947,7.947,0,0,1,1.977-2.574,3.613,3.613,0,0,1,2.018-.633,6.267,6.267,0,0,1,3.163.991l-1.106,2.885a4.45,4.45,0,0,0-2.254-.632,3.033,3.033,0,0,0-1.82.595,3.7,3.7,0,0,0-1.146,1.7,11.875,11.875,0,0,0-.515,3.64v9.57Zm27.09-5.932,3.243.435a7.993,7.993,0,0,1-2.81,4.349,9.6,9.6,0,0,1-11.628-.911,9.879,9.879,0,0,1-2.331-6.959c0-3.088.792-5.458,2.372-7.158a8.055,8.055,0,0,1,6.17-2.573,7.8,7.8,0,0,1,6.011,2.532c1.543,1.662,2.294,4,2.294,7.04v.791h-13.686a7.05,7.05,0,0,0,1.741,4.627,5.017,5.017,0,0,0,3.8,1.621,4.777,4.777,0,0,0,2.925-.908A5.936,5.936,0,0,0,8961.826,16316.378Zm-10.164-4.983h10.205a6.264,6.264,0,0,0-1.148-3.481,5.137,5.137,0,0,0-7.435-.36A5.625,5.625,0,0,0,8951.662,16311.395Zm18.863,5.454,3.085-.512a4.329,4.329,0,0,0,1.424,2.851,5.222,5.222,0,0,0,3.322.983,4.931,4.931,0,0,0,3.205-.866,2.7,2.7,0,0,0,1.027-2.06,1.849,1.849,0,0,0-.949-1.658,14.271,14.271,0,0,0-3.163-1.068,29.262,29.262,0,0,1-4.747-1.465,4.461,4.461,0,0,1-1.977-1.741,4.526,4.526,0,0,1-.713-2.45,5.043,5.043,0,0,1,.554-2.295,5.351,5.351,0,0,1,1.542-1.7,6.145,6.145,0,0,1,1.978-.91,9.87,9.87,0,0,1,2.691-.4,10.9,10.9,0,0,1,3.757.633,5.223,5.223,0,0,1,2.412,1.7,6.749,6.749,0,0,1,1.069,2.849l-3.048.436a3.317,3.317,0,0,0-1.187-2.253,4.173,4.173,0,0,0-2.807-.792,5.1,5.1,0,0,0-3.046.71,2.115,2.115,0,0,0-.909,1.662,1.579,1.579,0,0,0,.395,1.071,2.92,2.92,0,0,0,1.188.827c.317.118,1.227.4,2.729.79a41.881,41.881,0,0,1,4.588,1.429,4.546,4.546,0,0,1,2.058,1.658,4.374,4.374,0,0,1,.75,2.649,5,5,0,0,1-.911,2.926,5.582,5.582,0,0,1-2.61,2.1,9.286,9.286,0,0,1-3.874.75,8.691,8.691,0,0,1-5.457-1.464A7.032,7.032,0,0,1,8970.525,16316.849Zm20.449,0,3.085-.512a4.3,4.3,0,0,0,1.423,2.851,5.215,5.215,0,0,0,3.321.983,4.928,4.928,0,0,0,3.2-.866,2.69,2.69,0,0,0,1.028-2.06,1.852,1.852,0,0,0-.949-1.658,14.306,14.306,0,0,0-3.164-1.068,29.168,29.168,0,0,1-4.744-1.465,4.639,4.639,0,0,1-2.692-4.191,5.009,5.009,0,0,1,.557-2.295,5.3,5.3,0,0,1,1.539-1.7,6.184,6.184,0,0,1,1.98-.91,9.837,9.837,0,0,1,2.688-.4,10.9,10.9,0,0,1,3.757.633,5.213,5.213,0,0,1,2.412,1.7,6.7,6.7,0,0,1,1.067,2.849l-3.046.436a3.317,3.317,0,0,0-1.185-2.253,4.185,4.185,0,0,0-2.81-.792,5.184,5.184,0,0,0-3.045.71,2.111,2.111,0,0,0-.908,1.662,1.578,1.578,0,0,0,.394,1.071,2.919,2.919,0,0,0,1.186.827c.319.118,1.228.4,2.73.79a42.135,42.135,0,0,1,4.589,1.429,4.548,4.548,0,0,1,2.055,1.658,4.362,4.362,0,0,1,.752,2.649,5.023,5.023,0,0,1-.908,2.926,5.6,5.6,0,0,1-2.611,2.1,9.3,9.3,0,0,1-3.876.75,8.7,8.7,0,0,1-5.458-1.464A7.024,7.024,0,0,1,8990.975,16316.849Z" transform="translate(-30833.998 -29410.027)" fill="#3c8ef9"/>
    </g>
  </g>
</svg>
