<svg xmlns="http://www.w3.org/2000/svg" xmlns:xlink="http://www.w3.org/1999/xlink" width="176.945" height="176.948" viewBox="0 0 176.945 176.948">
  <defs>
    <linearGradient id="linear-gradient" x1="0.5" x2="0.5" y2="1" gradientUnits="objectBoundingBox">
      <stop offset="0" stop-color="#2fc7aa"/>
      <stop offset="1" stop-color="#3c8ef9"/>
    </linearGradient>
  </defs>
  <g id="Group_16362" data-name="Group 16362" transform="translate(24140.86 12916.395)">
    <path id="Path_19037" data-name="Path 19037" d="M7513.738,15001.057v-12.821h23.951v-6.383h-23.951a9.214,9.214,0,0,1,.338-2.544,4.539,4.539,0,0,1,1.13-2.033,5.614,5.614,0,0,1,2.146-1.357,10.284,10.284,0,0,1,3.363-.48h16.974v-6.38h-19.969c-4.011,0-6.977,1.412-8.869,4.206q-2.839,4.238-2.851,11.7v16.1Zm60.5,0h-19.46a13.3,13.3,0,0,1-5.707-1.1,9.409,9.409,0,0,1-3.782-3.164,13.7,13.7,0,0,1-2.119-5.054,32.535,32.535,0,0,1-.62-6.779V14969h7.708v19.458c0,4.068,2.345,6.1,7,6.1h16.976Zm34.909,0v-6.494h-16.975q-3.557,0-5.253-1.61a6.037,6.037,0,0,1-1.723-4.662h23.95v-6.437H7585.2a9.223,9.223,0,0,1,.311-2.544,4.792,4.792,0,0,1,1.129-2.033,5.6,5.6,0,0,1,2.146-1.357,10.581,10.581,0,0,1,3.39-.48h16.975v-6.38h-20c-4.012,0-6.949,1.412-8.84,4.206-1.922,2.825-2.855,6.724-2.855,11.7a30.758,30.758,0,0,0,.649,6.779,13.755,13.755,0,0,0,2.092,5.054,9.4,9.4,0,0,0,3.785,3.164,13.372,13.372,0,0,0,5.7,1.1Zm37.057,0v-6.494h-16.976q-3.559,0-5.253-1.61a6.037,6.037,0,0,1-1.723-4.662H7646.2v-6.437h-23.951a10.445,10.445,0,0,1,.311-2.544,4.792,4.792,0,0,1,1.129-2.033,5.829,5.829,0,0,1,2.146-1.357,10.577,10.577,0,0,1,3.39-.48H7646.2v-6.38h-19.969c-4.011,0-6.976,1.412-8.868,4.206-1.893,2.825-2.853,6.724-2.853,11.7a32.543,32.543,0,0,0,.649,6.779,13.7,13.7,0,0,0,2.091,5.054,9.4,9.4,0,0,0,3.783,3.164,13.425,13.425,0,0,0,5.733,1.1Zm36.744-25.619h-12.087v25.619h-7.512v-25.619h-11.778v-6.38h31.377Z" transform="translate(-31646.861 -27782.891)" fill="#1e1e2d"/>
    <g id="Group_16468" data-name="Group 16468" transform="translate(-7.406)">
      <path id="Path_19036" data-name="Path 19036" d="M9263.09,11835a43.105,43.105,0,0,1,41.484,31.457h-6.528v-.027l-24.962-.152c-10.446-.275-16.978,3.584-22.14,7.561.7-7.381,4.949-17.309,15.306-18.8l25.57-.029c-.516-.73.15.211-.426-.455a37.04,37.04,0,1,0,7.684,15.762h6.378a41.067,41.067,0,0,1,.729,7.773A43.092,43.092,0,1,1,9263.09,11835Z" transform="translate(-33308.453 -24751.395)" fill-rule="evenodd" fill="url(#linear-gradient)"/>
      <path id="Path_19038" data-name="Path 19038" d="M10220.515,13042.127l.034-4.127,12.088,10.295-12.088,9.809-.061-4.375h-13.364c-4.584-.15-6.652,1.428-6.288,4.617v16.092h-12.478v-17.672c-.366-5.982,4.161-14.67,19.615-14.605Z" transform="translate(-34247.383 -25917.221)" fill-rule="evenodd" fill="url(#linear-gradient)"/>
    </g>
    <path id="Path_19035" data-name="Path 19035" d="M8866,16324.276V16297h19.691v3.2h-16.069v8.4h15.046v3.2h-15.046v9.292h16.749v3.2Zm25.613,0,7.245-10.229-6.687-9.551h4.091l3.154,4.69c.552.853,1.022,1.574,1.365,2.131.552-.765,1.064-1.5,1.488-2.131l3.283-4.69h4.137l-6.739,9.551,7.162,10.229h-4.092l-4.09-6.094-.938-1.448-5.287,7.542Zm24.338,7.586V16304.5h3.027v2.6a7.69,7.69,0,0,1,2.473-2.26,6.535,6.535,0,0,1,3.279-.771,8.124,8.124,0,0,1,4.479,1.325,7.825,7.825,0,0,1,2.9,3.667,12.959,12.959,0,0,1,.979,5.2,13.275,13.275,0,0,1-1.064,5.457,8.186,8.186,0,0,1-3.154,3.708,8.31,8.31,0,0,1-4.389,1.276,6.293,6.293,0,0,1-2.983-.678,6.419,6.419,0,0,1-2.174-1.8v9.637Zm3.027-17.348q0,3.836,1.533,5.626a4.812,4.812,0,0,0,7.588-.042,9.28,9.28,0,0,0,1.576-5.84c0-2.517-.51-4.436-1.576-5.669a4.663,4.663,0,0,0-3.666-1.873,4.848,4.848,0,0,0-3.794,2A8.884,8.884,0,0,0,8918.978,16314.515Zm21.1,9.762V16304.5h3.024v3.028a8.583,8.583,0,0,1,2.13-2.774,3.9,3.9,0,0,1,2.175-.682,6.759,6.759,0,0,1,3.409,1.068l-1.192,3.109a4.794,4.794,0,0,0-2.43-.682,3.27,3.27,0,0,0-1.962.642,3.994,3.994,0,0,0-1.234,1.833,12.809,12.809,0,0,0-.555,3.922v10.314Zm29.194-6.393,3.5.468a8.616,8.616,0,0,1-3.027,4.688,10.348,10.348,0,0,1-12.531-.982,10.645,10.645,0,0,1-2.513-7.5c0-3.327.854-5.882,2.557-7.714a8.679,8.679,0,0,1,6.649-2.773,8.408,8.408,0,0,1,6.478,2.729c1.663,1.791,2.472,4.308,2.472,7.587v.853H8958.1a7.6,7.6,0,0,0,1.876,4.986,5.408,5.408,0,0,0,4.095,1.747,5.142,5.142,0,0,0,3.152-.979A6.4,6.4,0,0,0,8969.271,16317.884Zm-10.954-5.37h11a6.752,6.752,0,0,0-1.237-3.753,5.538,5.538,0,0,0-8.013-.388A6.068,6.068,0,0,0,8958.317,16312.514Zm20.329,5.877,3.325-.551a4.663,4.663,0,0,0,1.534,3.072,5.627,5.627,0,0,0,3.58,1.06,5.312,5.312,0,0,0,3.454-.934,2.907,2.907,0,0,0,1.107-2.22,1.992,1.992,0,0,0-1.022-1.787,15.415,15.415,0,0,0-3.409-1.151,31.576,31.576,0,0,1-5.116-1.578,4.815,4.815,0,0,1-2.13-1.877,4.877,4.877,0,0,1-.769-2.641,5.442,5.442,0,0,1,.6-2.474,5.782,5.782,0,0,1,1.662-1.833,6.612,6.612,0,0,1,2.131-.98,10.636,10.636,0,0,1,2.9-.428,11.752,11.752,0,0,1,4.049.682,5.628,5.628,0,0,1,2.6,1.834,7.274,7.274,0,0,1,1.152,3.069l-3.284.47a3.577,3.577,0,0,0-1.28-2.428,4.5,4.5,0,0,0-3.024-.854,5.5,5.5,0,0,0-3.282.765,2.278,2.278,0,0,0-.98,1.792,1.7,1.7,0,0,0,.426,1.154,3.144,3.144,0,0,0,1.279.892c.343.127,1.322.429,2.94.852a45.172,45.172,0,0,1,4.944,1.539,4.9,4.9,0,0,1,2.218,1.787,4.715,4.715,0,0,1,.809,2.855,5.385,5.385,0,0,1-.982,3.153,6.023,6.023,0,0,1-2.812,2.261,10.025,10.025,0,0,1-4.176.808,9.367,9.367,0,0,1-5.881-1.577A7.584,7.584,0,0,1,8978.646,16318.391Zm22.038,0,3.325-.551a4.637,4.637,0,0,0,1.533,3.072,5.62,5.62,0,0,0,3.579,1.06,5.313,5.313,0,0,0,3.453-.934,2.9,2.9,0,0,0,1.108-2.22,2,2,0,0,0-1.023-1.787,15.415,15.415,0,0,0-3.409-1.151,31.482,31.482,0,0,1-5.113-1.578,5,5,0,0,1-2.9-4.518,5.407,5.407,0,0,1,.6-2.474,5.717,5.717,0,0,1,1.659-1.833,6.651,6.651,0,0,1,2.134-.98,10.592,10.592,0,0,1,2.9-.428,11.756,11.756,0,0,1,4.049.682,5.618,5.618,0,0,1,2.6,1.834,7.222,7.222,0,0,1,1.15,3.069l-3.282.47a3.577,3.577,0,0,0-1.277-2.428,4.508,4.508,0,0,0-3.027-.854,5.589,5.589,0,0,0-3.281.765,2.274,2.274,0,0,0-.979,1.792,1.7,1.7,0,0,0,.425,1.154,3.143,3.143,0,0,0,1.277.892c.344.127,1.322.429,2.942.852a45.5,45.5,0,0,1,4.945,1.539,4.9,4.9,0,0,1,2.215,1.787,4.7,4.7,0,0,1,.811,2.855,5.417,5.417,0,0,1-.979,3.153,6.035,6.035,0,0,1-2.813,2.261,10.038,10.038,0,0,1-4.178.808,9.375,9.375,0,0,1-5.882-1.577A7.567,7.567,0,0,1,9000.685,16318.391Z" transform="translate(-32993.84 -29071.309)" fill="#3c8ef9"/>
  </g>
</svg>
