<svg xmlns="http://www.w3.org/2000/svg" width="529.008" height="156.469" viewBox="0 0 529.008 156.469">
  <g id="Fleet_Express" data-name="Fleet Express" transform="translate(22244.012 14250.982)">
    <g id="Group_16424" data-name="Group 16424" transform="translate(2010.85 -1440.586)">
      <path id="Path_19037" data-name="Path 19037" d="M7520.99,15031.105v-24.844H7567.4v-12.367H7520.99a17.871,17.871,0,0,1,.658-4.926,8.753,8.753,0,0,1,2.189-3.937,10.868,10.868,0,0,1,4.158-2.629,19.911,19.911,0,0,1,6.512-.93H7567.4v-12.367h-38.689c-7.77,0-13.516,2.738-17.182,8.152-3.666,5.477-5.525,13.027-5.525,22.66v31.188Zm117.217,0h-37.7a25.7,25.7,0,0,1-11.055-2.133,18.226,18.226,0,0,1-7.332-6.129,26.57,26.57,0,0,1-4.105-9.793,63.24,63.24,0,0,1-1.2-13.133V14969h14.938v37.7c0,7.883,4.543,11.824,13.57,11.824h32.889Zm67.637,0v-12.582h-32.889q-6.894,0-10.178-3.121c-2.244-2.082-3.338-5.09-3.338-9.031h46.4v-12.477h-46.4a17.815,17.815,0,0,1,.6-4.926,9.3,9.3,0,0,1,2.189-3.937,10.838,10.838,0,0,1,4.158-2.629,20.5,20.5,0,0,1,6.566-.93h32.889v-12.367H7667.1c-7.773,0-13.463,2.738-17.131,8.152-3.721,5.477-5.527,13.027-5.527,22.66a59.494,59.494,0,0,0,1.26,13.133,26.623,26.623,0,0,0,4.049,9.793,18.245,18.245,0,0,0,7.334,6.129,25.866,25.866,0,0,0,11.053,2.133Zm71.795,0v-12.582H7744.75q-6.894,0-10.178-3.121c-2.244-2.082-3.338-5.09-3.338-9.031h46.4v-12.477h-46.4a20.064,20.064,0,0,1,.6-4.926,9.255,9.255,0,0,1,2.188-3.937,11.306,11.306,0,0,1,4.158-2.629,20.5,20.5,0,0,1,6.566-.93h32.889v-12.367h-38.689c-7.771,0-13.516,2.738-17.182,8.152-3.666,5.477-5.525,13.027-5.525,22.66a63.138,63.138,0,0,0,1.256,13.133,26.625,26.625,0,0,0,4.051,9.793,18.239,18.239,0,0,0,7.332,6.129,25.972,25.972,0,0,0,11.107,2.133Zm71.193-49.633H7825.41v49.633h-14.555v-49.633h-22.82v-12.367h60.8Z" transform="translate(-31574.686 -27767.16)" fill="#fff"/>
      <path id="Path_19036" data-name="Path 19036" d="M9297.646,11835a77.676,77.676,0,0,1,74.754,56.691h-11.766v-.051l-44.984-.277c-18.822-.492-30.588,6.461-39.891,13.629,1.26-13.3,8.92-31.2,27.582-33.875l46.076-.055c-.932-1.312.271.387-.768-.82a66.723,66.723,0,1,0,13.846,28.4h11.49a73.976,73.976,0,0,1,1.314,14.008,77.651,77.651,0,1,1-77.654-77.652Z" transform="translate(-33474.859 -24645.395)" fill="#fff" fill-rule="evenodd"/>
      <path id="Path_19038" data-name="Path 19038" d="M10246.322,13045.436l.057-7.437,21.781,18.551-21.781,17.672-.107-7.879h-24.08c-8.262-.273-11.986,2.57-11.328,8.316v29h-22.49v-31.848c-.656-10.781,7.5-26.434,35.35-26.316Z" transform="translate(-34390.207 -25781.4)" fill="#fff" fill-rule="evenodd"/>
      <path id="Path_19035" data-name="Path 19035" d="M8866,16349.852V16297h38.152v6.188h-31.135v16.27h29.152v6.2h-29.152v18h32.453v6.2Zm49.627,0,14.037-19.824-12.961-18.5h7.928l6.109,9.086c1.072,1.652,1.982,3.051,2.646,4.125,1.07-1.48,2.061-2.891,2.887-4.125l6.359-9.086h8.012l-13.051,18.5,13.873,19.824h-7.928l-7.926-11.809-1.814-2.809-10.242,14.617Zm47.154,14.7v-53.02h5.865v5.043a14.892,14.892,0,0,1,4.789-4.383,12.719,12.719,0,0,1,6.355-1.484,15.722,15.722,0,0,1,8.676,2.563,15.164,15.164,0,0,1,5.613,7.1,25.184,25.184,0,0,1,1.9,10.078,25.669,25.669,0,0,1-2.062,10.566,15.85,15.85,0,0,1-6.113,7.188,16.086,16.086,0,0,1-8.5,2.477,12.146,12.146,0,0,1-5.783-1.32,12.479,12.479,0,0,1-4.207-3.473v18.668Zm5.865-33.613q0,7.436,2.969,10.9a9.323,9.323,0,0,0,14.7-.078c1.979-2.48,3.055-6.277,3.055-11.312,0-4.875-.992-8.594-3.055-10.988a9.039,9.039,0,0,0-7.1-3.625c-2.811,0-5.2,1.313-7.352,3.875S8968.646,16326.066,8968.646,16330.938Zm40.879,18.914v-38.32h5.857v5.859a16.53,16.53,0,0,1,4.131-5.363,7.5,7.5,0,0,1,4.211-1.32,13.115,13.115,0,0,1,6.605,2.063l-2.309,6.027a9.3,9.3,0,0,0-4.711-1.32,6.344,6.344,0,0,0-3.8,1.238,7.757,7.757,0,0,0-2.393,3.555,24.8,24.8,0,0,0-1.076,7.6v19.984Zm56.561-12.387,6.775.906a16.7,16.7,0,0,1-5.865,9.082,17.849,17.849,0,0,1-10.979,3.223c-5.535,0-10-1.734-13.3-5.121-3.217-3.465-4.871-8.344-4.871-14.535,0-6.441,1.654-11.395,4.955-14.949a16.826,16.826,0,0,1,12.883-5.363,16.282,16.282,0,0,1,12.551,5.285c3.221,3.465,4.789,8.344,4.789,14.7v1.652h-28.572c.25,4.215,1.486,7.434,3.631,9.664a10.507,10.507,0,0,0,7.936,3.383,9.972,9.972,0,0,0,6.107-1.9A12.391,12.391,0,0,0,9066.086,16337.465Zm-21.221-10.406h21.309a13.048,13.048,0,0,0-2.4-7.266,10.712,10.712,0,0,0-15.523-.75A11.755,11.755,0,0,0,9044.865,16327.059Zm39.389,11.391,6.441-1.066a9.007,9.007,0,0,0,2.973,5.945,10.88,10.88,0,0,0,6.938,2.059c2.973,0,5.2-.574,6.689-1.812a5.6,5.6,0,0,0,2.145-4.3,3.872,3.872,0,0,0-1.979-3.465,29.693,29.693,0,0,0-6.607-2.23,60.915,60.915,0,0,1-9.91-3.059,9.335,9.335,0,0,1-4.127-3.633,9.442,9.442,0,0,1-1.49-5.117,10.521,10.521,0,0,1,1.158-4.793,11.171,11.171,0,0,1,3.221-3.551,12.875,12.875,0,0,1,4.127-1.9,20.507,20.507,0,0,1,5.619-.824,22.637,22.637,0,0,1,7.844,1.32,10.882,10.882,0,0,1,5.039,3.551,14,14,0,0,1,2.23,5.945l-6.361.906a6.974,6.974,0,0,0-2.48-4.707c-1.32-1.148-3.3-1.652-5.861-1.652-2.973,0-5.039.5-6.359,1.488a4.415,4.415,0,0,0-1.9,3.473,3.274,3.274,0,0,0,.824,2.23,6.023,6.023,0,0,0,2.477,1.73c.662.246,2.563.828,5.7,1.652a87.625,87.625,0,0,1,9.578,2.977,9.506,9.506,0,0,1,4.295,3.465,9.121,9.121,0,0,1,1.568,5.531,10.432,10.432,0,0,1-1.9,6.109,11.65,11.65,0,0,1-5.449,4.379,19.391,19.391,0,0,1-8.092,1.57c-4.955,0-8.752-.992-11.4-3.059Q9085.374,16344.523,9084.254,16338.449Zm42.7,0,6.441-1.066a8.962,8.962,0,0,0,2.971,5.945,10.874,10.874,0,0,0,6.936,2.059c2.975,0,5.2-.574,6.689-1.812a5.594,5.594,0,0,0,2.148-4.3,3.875,3.875,0,0,0-1.982-3.465,29.773,29.773,0,0,0-6.607-2.23,60.7,60.7,0,0,1-9.906-3.059,9.68,9.68,0,0,1-5.619-8.75,10.5,10.5,0,0,1,1.16-4.793,11.092,11.092,0,0,1,3.217-3.551,12.92,12.92,0,0,1,4.131-1.9,20.453,20.453,0,0,1,5.613-.824,22.657,22.657,0,0,1,7.846,1.32,10.845,10.845,0,0,1,5.037,3.551,13.974,13.974,0,0,1,2.23,5.945l-6.361.906a6.974,6.974,0,0,0-2.473-4.707c-1.324-1.148-3.307-1.652-5.865-1.652-2.891,0-5.039.5-6.359,1.488a4.407,4.407,0,0,0-1.9,3.473,3.266,3.266,0,0,0,.826,2.23,5.993,5.993,0,0,0,2.473,1.73c.666.246,2.563.828,5.7,1.652a88.352,88.352,0,0,1,9.582,2.977,9.521,9.521,0,0,1,4.289,3.465,9.109,9.109,0,0,1,1.572,5.531,10.472,10.472,0,0,1-1.9,6.109,11.65,11.65,0,0,1-5.449,4.379,19.416,19.416,0,0,1-8.1,1.57c-4.953,0-8.752-.992-11.395-3.059Q9128.063,16344.523,9126.951,16338.449Z" transform="translate(-32934.684 -29018.479)" fill="#fff"/>
    </g>
  </g>
</svg>
