<svg xmlns="http://www.w3.org/2000/svg" width="36" height="36" viewBox="0 0 36 36">
  <g id="Idle_vehicle" data-name="Idle vehicle" transform="translate(-21 -207)">
    <g id="Group_16619" data-name="Group 16619">
      <path id="Path_19380" data-name="Path 19380" d="M18,0A18.092,18.092,0,0,1,35.379,13.294,17.489,17.489,0,0,1,36,18,18,18,0,1,1,18,0Z" transform="translate(21 207)" fill="#d2e5fe"/>
      <path id="car_4_" data-name="car (4)" d="M16.706,5.834,15.439,1.61A2.245,2.245,0,0,0,13.276,0H4.793A2.245,2.245,0,0,0,2.629,1.61L1.362,5.834A2.26,2.26,0,0,0,0,7.9v4.517a1.129,1.129,0,0,0,1.129,1.129h0V14.68A1.129,1.129,0,0,0,2.259,15.81H3.388a1.129,1.129,0,0,0,1.129-1.129V13.551h9.035V14.68A1.129,1.129,0,0,0,14.68,15.81H15.81a1.129,1.129,0,0,0,1.129-1.129V13.551h0a1.129,1.129,0,0,0,1.129-1.129V7.9a2.26,2.26,0,0,0-1.362-2.071ZM4.793,2.259h8.483l1.016,3.388H3.776L4.793,2.259Zm-.276,8.47A1.129,1.129,0,1,1,5.646,9.6,1.129,1.129,0,0,1,4.517,10.728Zm9.034,0A1.129,1.129,0,1,1,14.681,9.6,1.129,1.129,0,0,1,13.551,10.728Z" transform="translate(30 217)" fill="#3c8ef8"/>
    </g>
  </g>
</svg>
