<svg xmlns="http://www.w3.org/2000/svg" xmlns:xlink="http://www.w3.org/1999/xlink" width="102.713" height="86.936" viewBox="0 0 102.713 86.936">
  <defs>
    <linearGradient id="linear-gradient" x1="0.5" x2="0.5" y2="1" gradientUnits="objectBoundingBox">
      <stop offset="0" stop-color="#2fc7aa"/>
      <stop offset="1" stop-color="#3c8ef9"/>
    </linearGradient>
  </defs>
  <g id="No_Users_Created" data-name="No Users Created" transform="translate(-948.62 -461)">
    <path id="Subtraction_67" data-name="Subtraction 67" d="M1873.547,7364.684h-60l-.547-2.054v-76.469L1814.1,7285h42.79l18.087,17.37-.079,59.683-1.355,2.63Zm-29.846-62.393a14,14,0,1,0,14,14A14.015,14.015,0,0,0,1843.7,7302.291Z" transform="translate(-843.202 -6817.854)" opacity="0.3" fill="url(#linear-gradient)"/>
    <g id="question" transform="translate(967.5 466.063)">
      <path id="Path_19021" data-name="Path 19021" d="M43.5,350.426a1.2,1.2,0,0,0,1.2,1.2H69a1.2,1.2,0,0,0,0-2.4H44.7A1.2,1.2,0,0,0,43.5,350.426Zm0,0" transform="translate(-36.127 -293.383)" fill="#2f2e5d"/>
      <path id="Path_19022" data-name="Path 19022" d="M44.7,396.778H93.288a1.2,1.2,0,0,0,0-2.4H44.7a1.2,1.2,0,0,0,0,2.4Zm0,0" transform="translate(-36.127 -331.315)" fill="#2f2e5d"/>
      <path id="Path_19023" data-name="Path 19023" d="M311.007,439.535h-7.143a1.2,1.2,0,0,0,0,2.4h7.143a1.2,1.2,0,1,0,0-2.4Zm0,0" transform="translate(-253.845 -369.25)" fill="#2f2e5d"/>
      <path id="Path_19024" data-name="Path 19024" d="M44.7,441.934H80.531a1.2,1.2,0,0,0,0-2.4H44.7a1.2,1.2,0,0,0,0,2.4Zm0,0" transform="translate(-36.127 -369.25)" fill="#2f2e5d"/>
      <path id="Path_19025" data-name="Path 19025" d="M65.237,18.834c0-.009,0-.017,0-.027v0c0-.009,0-.019,0-.028s0-.018,0-.027v-.006l0-.021a.03.03,0,0,1,0-.007c0-.008,0-.016,0-.024a.017.017,0,0,0,0-.006c0-.007,0-.015,0-.022a.069.069,0,0,0,0-.011.125.125,0,0,1,0-.015l0-.011c0-.008,0-.016,0-.024l0-.007,0-.018a.073.073,0,0,0,0-.011l0-.016,0-.009c0-.008,0-.016-.006-.024a.031.031,0,0,1,0-.008c0-.006,0-.012,0-.017a.051.051,0,0,1,0-.009l-.006-.017s0-.006,0-.008l-.009-.024a.015.015,0,0,1,0,0l-.008-.021a.026.026,0,0,0,0-.006c0-.007,0-.014-.008-.021a.009.009,0,0,1,0,0l-.011-.026h0l-.011-.023,0,0c0-.007-.007-.015-.011-.023h0a.248.248,0,0,0-.013-.026h0l-.012-.024,0,0-.013-.022h0c-.009-.016-.019-.032-.03-.047l0,0-.014-.021,0,0L65,18.121h0l-.016-.021,0-.006-.014-.017,0,0-.017-.021h0l-.016-.019-.006-.006-.013-.014-.006-.006-.019-.019L47.25.351,47.231.332l0,0L47.21.312l0,0L47.163.272h0L47.14.254l0,0a1.17,1.17,0,0,0-.222-.137h0L46.862.091h0L46.837.082l-.006,0L46.809.071h0L46.782.062l-.009,0-.017,0-.009,0-.017,0-.009,0L46.7.037l-.012,0-.012,0-.013,0-.014,0-.017,0-.016,0-.014,0-.012,0-.012,0-.016,0-.016,0-.017,0h-.037l-.026,0H4.1A3.606,3.606,0,0,0,.5,3.6V18.324a1.2,1.2,0,0,0,2.4,0V3.6A1.2,1.2,0,0,1,4.1,2.4H45.2V16.666a3.372,3.372,0,0,0,3.369,3.368H62.839V78.27a1.205,1.205,0,0,1-1.2,1.2H4.1a1.205,1.205,0,0,1-1.2-1.2V23.937a1.2,1.2,0,0,0-2.4,0V78.27a3.606,3.606,0,0,0,3.6,3.6H61.635a3.606,3.606,0,0,0,3.6-3.6V18.835h0Zm-16.666-1.2a.971.971,0,0,1-.97-.969V4.094L61.142,17.635Zm0,0" fill="#2f2e5d"/>
      <path id="Path_19026" data-name="Path 19026" d="M134.179,120.542a16.16,16.16,0,1,0-16.161,16.16A16.178,16.178,0,0,0,134.179,120.542Zm-29.922,0A13.762,13.762,0,1,1,118.018,134.3,13.777,13.777,0,0,1,104.257,120.542Zm0,0" transform="translate(-85.15 -87.691)" fill="#2f2e5d"/>
    </g>
    <g id="placeholder_2_" data-name="placeholder (2)" transform="translate(927.029 461.001)">
      <g id="Group_16474" data-name="Group 16474" transform="translate(113.375 74.723)">
        <path id="Path_19171" data-name="Path 19171" d="M391.765,413.78a1.636,1.636,0,0,1-1.157-2.792l5.782-5.782a1.636,1.636,0,0,1,2.313,2.313l-5.782,5.782A1.63,1.63,0,0,1,391.765,413.78Z" transform="translate(-563.923 -5.795) rotate(-45)" fill="#ff5d5d"/>
        <path id="Path_19172" data-name="Path 19172" d="M397.548,413.78a1.631,1.631,0,0,1-1.157-.479l-5.782-5.782a1.636,1.636,0,0,1,2.313-2.313l5.782,5.782a1.636,1.636,0,0,1-1.156,2.792Z" transform="translate(-563.923 -5.795) rotate(-45)" fill="#ff5d5d"/>
      </g>
      <path id="Path_19173" data-name="Path 19173" d="M167.3,364.435a4.725,4.725,0,1,1,4.725-4.725A4.73,4.73,0,0,1,167.3,364.435Zm0-6.75a2.025,2.025,0,1,0,2.025,2.025A2.027,2.027,0,0,0,167.3,357.686Z" transform="translate(-113.495 -308.202)" fill="#3c8ef9"/>
      <path id="Path_19174" data-name="Path 19174" d="M414.6,12.522a1.636,1.636,0,0,1-1.157-.479l-4.626-4.626a1.636,1.636,0,0,1,0-2.313L413.439.478a1.636,1.636,0,0,1,2.313,0L420.378,5.1a1.636,1.636,0,0,1,0,2.313l-4.626,4.626A1.636,1.636,0,0,1,414.6,12.522ZM412.283,6.26,414.6,8.574l2.313-2.313L414.6,3.948Z" transform="translate(-307.095)" fill="#ffc504"/>
      <path id="Path_19175" data-name="Path 19175" d="M413.817,10.965a1.433,1.433,0,0,1-1.013-.419l-4.051-4.051a1.432,1.432,0,0,1,0-2.026L412.8.418a1.433,1.433,0,0,1,2.025,0l4.051,4.051a1.432,1.432,0,0,1,0,2.025l-4.051,4.051A1.432,1.432,0,0,1,413.817,10.965Zm-2.026-5.483,2.026,2.026,2.025-2.026-2.025-2.025Z" transform="translate(-386.743 56.235)" fill="#2fc7aa"/>
    </g>
    <text id="_" data-name="+" transform="translate(991 508.937)" fill="#30c7ab" font-size="29" font-family="Poppins-Regular, Poppins"><tspan x="0" y="0">+</tspan></text>
  </g>
</svg>
