<svg xmlns="http://www.w3.org/2000/svg" xmlns:xlink="http://www.w3.org/1999/xlink" width="105.065" height="84.701" viewBox="0 0 105.065 84.701">
  <defs>
    <linearGradient id="linear-gradient" x1="0.5" x2="0.5" y2="1" gradientUnits="objectBoundingBox">
      <stop offset="0" stop-color="#2fc7aa"/>
      <stop offset="1" stop-color="#3c8ef9"/>
    </linearGradient>
  </defs>
  <g id="No_Users_Role_Created" data-name="No Users Role Created" transform="translate(-946.268 -463.235)">
    <path id="Subtraction_67" data-name="Subtraction 67" d="M1813,7286.162v76.469l.546,2.053h60l1.355-2.629.08-59.683L1856.894,7285H1814.1Z" transform="translate(-843.202 -6817.854)" opacity="0.3" fill="url(#linear-gradient)"/>
    <g id="question" transform="translate(967.5 466.063)">
      <path id="Path_19022" data-name="Path 19022" d="M44.7,396.778H93.288a1.2,1.2,0,0,0,0-2.4H44.7a1.2,1.2,0,0,0,0,2.4Zm0,0" transform="translate(-36.127 -331.315)" fill="#2f2e5d"/>
      <path id="Path_19023" data-name="Path 19023" d="M311.007,439.535h-7.143a1.2,1.2,0,0,0,0,2.4h7.143a1.2,1.2,0,1,0,0-2.4Zm0,0" transform="translate(-253.845 -369.25)" fill="#2f2e5d"/>
      <path id="Path_19024" data-name="Path 19024" d="M44.7,441.934H80.531a1.2,1.2,0,0,0,0-2.4H44.7a1.2,1.2,0,0,0,0,2.4Zm0,0" transform="translate(-36.127 -369.25)" fill="#2f2e5d"/>
      <path id="Path_19025" data-name="Path 19025" d="M65.237,18.834c0-.009,0-.017,0-.027v0c0-.009,0-.019,0-.028s0-.018,0-.027v-.006l0-.021a.03.03,0,0,1,0-.007c0-.008,0-.016,0-.024a.017.017,0,0,0,0-.006c0-.007,0-.015,0-.022a.069.069,0,0,0,0-.011.125.125,0,0,1,0-.015l0-.011c0-.008,0-.016,0-.024l0-.007,0-.018a.073.073,0,0,0,0-.011l0-.016,0-.009c0-.008,0-.016-.006-.024a.031.031,0,0,1,0-.008c0-.006,0-.012,0-.017a.051.051,0,0,1,0-.009l-.006-.017s0-.006,0-.008l-.009-.024a.015.015,0,0,1,0,0l-.008-.021a.026.026,0,0,0,0-.006c0-.007,0-.014-.008-.021a.009.009,0,0,1,0,0l-.011-.026h0l-.011-.023,0,0c0-.007-.007-.015-.011-.023h0a.248.248,0,0,0-.013-.026h0l-.012-.024,0,0-.013-.022h0c-.009-.016-.019-.032-.03-.047l0,0-.014-.021,0,0L65,18.121h0l-.016-.021,0-.006-.014-.017,0,0-.017-.021h0l-.016-.019-.006-.006-.013-.014-.006-.006-.019-.019L47.25.351,47.231.332l0,0L47.21.312l0,0L47.163.272h0L47.14.254l0,0a1.17,1.17,0,0,0-.222-.137h0L46.862.091h0L46.837.082l-.006,0L46.809.071h0L46.782.062l-.009,0-.017,0-.009,0-.017,0-.009,0L46.7.037l-.012,0-.012,0-.013,0-.014,0-.017,0-.016,0-.014,0-.012,0-.012,0-.016,0-.016,0-.017,0h-.037l-.026,0H4.1A3.606,3.606,0,0,0,.5,3.6V18.324a1.2,1.2,0,0,0,2.4,0V3.6A1.2,1.2,0,0,1,4.1,2.4H45.2L62.839,20.034V78.27a1.205,1.205,0,0,1-1.2,1.2H4.1a1.205,1.205,0,0,1-1.2-1.2V23.937a1.2,1.2,0,0,0-2.4,0V78.27a3.606,3.606,0,0,0,3.6,3.6H61.635a3.606,3.606,0,0,0,3.6-3.6V18.835h0Z" fill="#2f2e5d"/>
    </g>
    <g id="placeholder_2_" data-name="placeholder (2)" transform="translate(927.029 461.001)">
      <g id="Group_16474" data-name="Group 16474" transform="translate(113.375 74.723)">
        <path id="Path_19171" data-name="Path 19171" d="M391.765,413.78a1.636,1.636,0,0,1-1.157-2.792l5.782-5.782a1.636,1.636,0,0,1,2.313,2.313l-5.782,5.782A1.63,1.63,0,0,1,391.765,413.78Z" transform="translate(-563.923 -5.795) rotate(-45)" fill="#ff5d5d"/>
        <path id="Path_19172" data-name="Path 19172" d="M397.548,413.78a1.631,1.631,0,0,1-1.157-.479l-5.782-5.782a1.636,1.636,0,0,1,2.313-2.313l5.782,5.782a1.636,1.636,0,0,1-1.156,2.792Z" transform="translate(-563.923 -5.795) rotate(-45)" fill="#ff5d5d"/>
      </g>
      <path id="Path_19173" data-name="Path 19173" d="M167.3,364.435a4.725,4.725,0,1,1,4.725-4.725A4.73,4.73,0,0,1,167.3,364.435Zm0-6.75a2.025,2.025,0,1,0,2.025,2.025A2.027,2.027,0,0,0,167.3,357.686Z" transform="translate(-115.073 -300.175)" fill="#3c8ef9"/>
      <path id="Path_19174" data-name="Path 19174" d="M414.6,12.522a1.636,1.636,0,0,1-1.157-.479l-4.626-4.626a1.636,1.636,0,0,1,0-2.313L413.439.478a1.636,1.636,0,0,1,2.313,0L420.378,5.1a1.636,1.636,0,0,1,0,2.313l-4.626,4.626A1.636,1.636,0,0,1,414.6,12.522ZM412.283,6.26,414.6,8.574l2.313-2.313L414.6,3.948Z" transform="translate(-389.095 58)" fill="#ffc504"/>
      <path id="Path_19175" data-name="Path 19175" d="M413.817,10.965a1.433,1.433,0,0,1-1.013-.419l-4.051-4.051a1.432,1.432,0,0,1,0-2.026L412.8.418a1.433,1.433,0,0,1,2.025,0l4.051,4.051a1.432,1.432,0,0,1,0,2.025l-4.051,4.051A1.432,1.432,0,0,1,413.817,10.965Zm-2.026-5.483,2.026,2.026,2.025-2.026-2.025-2.025Z" transform="translate(-305.317 2.235)" fill="#2fc7aa"/>
    </g>
    <g id="audiences" transform="translate(986.419 476.949)">
      <path id="Path_19177" data-name="Path 19177" d="M19.307,43a2.908,2.908,0,0,1-1.19,1.082C15.952,45.164,10,45.706,10,51.117v2.164H33.809V51.117c0-5.411-5.952-5.952-8.117-7.034A2.908,2.908,0,0,1,24.5,43Z" transform="translate(-4.589 -19.732)" fill="#1c94f9"/>
      <path id="Path_19178" data-name="Path 19178" d="M26.493,20.539a8.19,8.19,0,0,1,1.677-4.924C23.3,13.991,20,18.591,20,21.891c0,4.329,2.922,9.2,6.493,9.2,1.84,0,3.517-1.3,4.708-3.193a8.052,8.052,0,0,1-4.708-7.359Z" transform="translate(-9.178 -7.011)" fill="#1c94f9"/>
      <circle id="Ellipse_361" data-name="Ellipse 361" cx="8" cy="8" r="8" transform="translate(17.581 5.051)" fill="#fff"/>
      <g id="Group_16478" data-name="Group 16478" transform="translate(0)">
        <path id="Path_19179" data-name="Path 19179" d="M39.082,21.952h2.706v2.706a1.082,1.082,0,1,0,2.164,0V21.952h2.706a1.082,1.082,0,1,0,0-2.164H43.952V17.082a1.082,1.082,0,1,0-2.164,0v2.706H39.082a1.082,1.082,0,1,0,0,2.164Z" transform="translate(-17.438 -7.342)" fill="#2f2e5d"/>
        <path id="Path_19180" data-name="Path 19180" d="M12.121,26.028a10.764,10.764,0,0,0,1.894-.7,3.355,3.355,0,0,0,1.19-.92,5,5,0,0,0,2.11.487,6.311,6.311,0,0,0,4.924-2.76,9.037,9.037,0,0,0,3.193.6,9.2,9.2,0,0,0,0-18.4,9.078,9.078,0,0,0-5.086,1.515,6.6,6.6,0,0,0-1.082-2.435A7.336,7.336,0,0,0,12.987,0,7.6,7.6,0,0,0,5.411,7.576a12.171,12.171,0,0,0,3.571,8.6c-.108.054-.162.162-.271.162-.379.162-.974.379-1.623.6C4.437,17.8,0,19.264,0,24.35v2.164A1.085,1.085,0,0,0,1.082,27.6H5.465a6.3,6.3,0,0,0-1.136,3.788v2.164a1.085,1.085,0,0,0,1.082,1.082H29.22A1.085,1.085,0,0,0,30.3,33.549V31.385c0-5.032-4.329-6.493-6.71-7.251a1.078,1.078,0,0,0-.649,2.056c2.76.92,5.195,2,5.195,5.195v1.082H6.493V31.385C6.493,28.138,8.928,27.056,12.121,26.028Zm5.195-3.3c-2.706,0-5.411-4.112-5.411-8.117A5.427,5.427,0,0,1,17.316,9.2a9.01,9.01,0,0,0-1.082,4.329,9.309,9.309,0,0,0,4.058,7.63A4.284,4.284,0,0,1,17.316,22.727Zm15.151-9.2a7.034,7.034,0,1,1-7.034-7.034A7.02,7.02,0,0,1,32.467,13.528ZM7.576,7.576a5.427,5.427,0,0,1,5.411-5.411A5.314,5.314,0,0,1,17.478,4.6a5.476,5.476,0,0,1,.866,2.489,6.214,6.214,0,0,0-1.028-.054,7.572,7.572,0,0,0-7.521,6.818A10.18,10.18,0,0,1,7.576,7.576ZM2.164,24.35c0-3.247,2.435-4.329,5.628-5.357a10.764,10.764,0,0,0,1.894-.7c.162-.108.379-.216.541-.325a10.445,10.445,0,0,0,3.138,5.195,9.251,9.251,0,0,1-1.894.812A17.58,17.58,0,0,0,7.9,25.487c-.162-.054-5.736-.054-5.736-.054Z" transform="translate(0)" fill="#2f2e5d"/>
      </g>
    </g>
  </g>
</svg>
