<svg xmlns="http://www.w3.org/2000/svg" width="95.171" height="91.651" viewBox="0 0 95.171 91.651">
  <g id="No_Driver_Registred" data-name="No Driver Registred" transform="translate(-911.999 -444.349)">
    <g id="No_Driver_Registration" data-name="No Driver Registration" transform="translate(-3)">
      <g id="driver_2_" data-name="driver (2)" transform="translate(884.936 444.349)">
        <g id="Group_16487" data-name="Group 16487" transform="translate(44.267 1.344)">
          <path id="Path_19181" data-name="Path 19181" d="M124.03,363.081l-2.682-16.242a13.276,13.276,0,0,0-7.908-10.056l-10.68-4.537H71.7l-10.68,4.537a13.276,13.276,0,0,0-7.908,10.056l-2.682,16.242Z" transform="translate(-50.435 -274.116)" fill="#d6f3ff"/>
          <g id="Group_16486" data-name="Group 16486" transform="translate(0)">
            <path id="Path_19182" data-name="Path 19182" d="M396.352,457l-2.9-6.334,6.559-4.025,5.6,10.359Z" transform="translate(-332.052 -368.031)" fill="#9ee3ff"/>
            <g id="Group_16485" data-name="Group 16485">
              <g id="Group_16481" data-name="Group 16481" transform="translate(15.277)">
                <path id="Path_19183" data-name="Path 19183" d="M176.253,24.869l1.98-4.46a6.122,6.122,0,0,0-3.852-8.361L160.457,7.964a11.322,11.322,0,0,0-6.374,0l-13.924,4.083a6.122,6.122,0,0,0-3.852,8.361l1.98,4.46,19.639,2.656Z" transform="translate(-135.777 -7.506)" fill="#3c8ef9"/>
                <g id="Group_16480" data-name="Group 16480" transform="translate(5.993 51.959)">
                  <path id="Path_19184" data-name="Path 19184" d="M173.713,297.775l-4.457,6.17,11.51,6.895,3.991-9.689Z" transform="translate(-169.256 -297.775)" fill="#9ee3ff"/>
                  <path id="Path_19185" data-name="Path 19185" d="M266.9,297.775l4.457,6.17-11.51,6.895-3.991-9.689Z" transform="translate(-240.352 -297.775)" fill="#9ee3ff"/>
                </g>
                <path id="Path_19186" data-name="Path 19186" d="M180.559,163.191l-7.924,2.953a11.009,11.009,0,0,1-7.691,0l-7.924-2.953a11.11,11.11,0,0,1-7.213-10.419v-18.6h37.965v18.6A11.11,11.11,0,0,1,180.559,163.191Z" transform="translate(-147.296 -111.503)" fill="#fdcfa4"/>
                <path id="Path_19187" data-name="Path 19187" d="M251.256,134.177v18.6a11.11,11.11,0,0,1-7.213,10.419l-7.924,2.953c-.088.033-.177.062-.265.092a11.006,11.006,0,0,0,7.425-.092l7.924-2.953a11.11,11.11,0,0,0,7.213-10.419v-18.6Z" transform="translate(-217.94 -111.503)" fill="#fdc590"/>
                <path id="Path_19188" data-name="Path 19188" d="M149.807,122a6.946,6.946,0,0,0,6.929,6.962h24.107A6.946,6.946,0,0,0,187.772,122l-18.983-2.656Z" transform="translate(-147.296 -99.321)" fill="#3c8ef9"/>
                <path id="Path_19189" data-name="Path 19189" d="M239.433,119.339l-3.58.5,15.4,2.155a6.946,6.946,0,0,1-6.929,6.962h7.16a6.946,6.946,0,0,0,6.929-6.962Z" transform="translate(-217.939 -99.321)" fill="#1e6ed5"/>
                <path id="Path_19190" data-name="Path 19190" d="M149.807,104.5h37.965v5.312H149.807Z" transform="translate(-147.296 -87.139)" fill="#ffbe00"/>
                <path id="Path_19191" data-name="Path 19191" d="M256.544,12.048,242.62,7.964a11.322,11.322,0,0,0-6.374,0l-.393.115,13.531,3.968a6.122,6.122,0,0,1,3.852,8.361l-1.98,4.46h7.16l1.98-4.46A6.122,6.122,0,0,0,256.544,12.048Z" transform="translate(-217.939 -7.506)" fill="#1e6ed5"/>
                <path id="Path_19192" data-name="Path 19192" d="M321.9,104.5h7.16v5.312H321.9Z" transform="translate(-288.583 -87.139)" fill="#f0b300"/>
                <path id="Path_19193" data-name="Path 19193" d="M233.556,326.325l3.991-9.689,3.991,9.689-1.486,4.112h-4.7Z" transform="translate(-216.053 -261.301)" fill="#ffbe00"/>
              </g>
              <g id="Group_16484" data-name="Group 16484" transform="translate(0 66.556)">
                <path id="Path_19194" data-name="Path 19194" d="M59.7,457l2.9-6.334-6.559-4.025L50.434,457Z" transform="translate(-50.434 -434.587)" fill="#9ee3ff"/>
                <path id="Path_19195" data-name="Path 19195" d="M79.562,430.249l-1.5,3.075a3.833,3.833,0,0,0,.289,3.86l.072.1a3.833,3.833,0,0,0,6.538-.373l3.745-7.022" transform="translate(-72.794 -420.841)" fill="#fdcfa4"/>
                <path id="Path_19196" data-name="Path 19196" d="M381.67,430.249l1.5,3.075a3.833,3.833,0,0,1-.289,3.86l-.072.1a3.833,3.833,0,0,1-6.538-.373l-3.745-7.022" transform="translate(-314.874 -420.841)" fill="#fdcfa4"/>
                <g id="Group_16482" data-name="Group 16482" transform="translate(8.654)">
                  <path id="Path_19197" data-name="Path 19197" d="M155.013,401.541a28.9,28.9,0,0,0-56.233,0m5.681,0a23.468,23.468,0,0,1,19.692-16.571v13.613a13.931,13.931,0,0,1-.317,2.958m6.121,0a13.93,13.93,0,0,1-.317-2.958V384.97a23.468,23.468,0,0,1,19.692,16.571" transform="translate(-98.78 -379.322)" fill="#8986a6"/>
                </g>
                <g id="Group_16483" data-name="Group 16483" transform="translate(6.768 2.676)">
                  <path id="Path_19198" data-name="Path 19198" d="M88.244,401s4.511,4.979,8.426,2.917,3.67-8.746,2.067-9.463C96.494,393.453,90.439,396.657,88.244,401Z" transform="translate(-88.244 -394.272)" fill="#fdcfa4"/>
                  <path id="Path_19199" data-name="Path 19199" d="M370.449,401s-4.511,4.979-8.426,2.917-3.67-8.746-2.067-9.463C362.2,393.453,368.254,396.657,370.449,401Z" transform="translate(-310.421 -394.272)" fill="#fdcfa4"/>
                </g>
              </g>
            </g>
          </g>
        </g>
        <g id="Group_16488" data-name="Group 16488" transform="translate(42.922 0)">
          <path id="Path_19200" data-name="Path 19200" d="M119.186,90.09,116.5,73.848a14.684,14.684,0,0,0-4.533-8.384c-1.237-1.137-3.11.789-1.817,1.977a11.988,11.988,0,0,1,3.7,6.844l1.391,8.425c-1.067-1.973-1.961-4.011-2.985-6.007a15.009,15.009,0,0,0-5.745-5.831c-1.23-.725-4.326-2.306-6.494-1.336A3.388,3.388,0,0,0,98.348,72a30.294,30.294,0,0,0-11.857-4.947l10.174-6.094L103.812,64a1.344,1.344,0,0,0,1.05-2.471l-7.478-3.177-3.206-4.438a12.516,12.516,0,0,0,7.185-11.3V18.991l1.865-4.2A7.548,7.548,0,0,0,98.526,4.6L84.6.514a12.638,12.638,0,0,0-7.125,0L71.189,2.335a1.344,1.344,0,0,0,.748,2.579L78.228,3.09a9.96,9.96,0,0,1,5.618,0L97.771,7.174a4.825,4.825,0,0,1,3,6.528l-1.626,3.663H62.927L61.3,13.7a4.779,4.779,0,0,1,3-6.528A1.344,1.344,0,0,0,63.548,4.6a7.464,7.464,0,0,0-4.7,10.194l1.865,4.2V42.614a12.516,12.516,0,0,0,7.185,11.3l-3.23,4.471L54.331,62.775a14.548,14.548,0,0,0-8.707,11.073L42.946,90.067a1.343,1.343,0,0,0,2.511.862l3.161-6.073a5.316,5.316,0,0,0,3.707,2.439q-.409,1.239-.712,2.516a1.343,1.343,0,0,0,2.613.618,27.3,27.3,0,0,1,3.526-8.365,5.629,5.629,0,0,0,2.333-.651,7.867,7.867,0,0,0,3.8-6.176,27.549,27.549,0,0,1,34.335.021,7.858,7.858,0,0,0,3.793,6.155,5.628,5.628,0,0,0,2.31.649,27.436,27.436,0,0,1,3.526,8.367,1.343,1.343,0,0,0,2.613-.618q-.3-1.275-.711-2.513a5.261,5.261,0,0,0,3.662-2.337l3.239,5.987a1.363,1.363,0,0,0,2.536-.857ZM85.676,64.415l-2.7-6.55c2.942-.468,5.839-1.913,8.614-2.947l3,4.155Zm13-44.366v2.627H63.4V20.049Zm-.161,5.312a5.6,5.6,0,0,1-5.425,4.277H68.984a5.6,5.6,0,0,1-5.425-4.277ZM63.4,42.614V30.137a8.221,8.221,0,0,0,5.586,2.187H93.091a8.221,8.221,0,0,0,5.586-2.187V42.614a9.807,9.807,0,0,1-6.34,9.161l-.689.257L81.038,55.275,70.423,52.03l-.686-.256a9.807,9.807,0,0,1-6.34-9.161Zm7.085,12.3c2.775,1.034,5.672,2.479,8.614,2.947l-2.7,6.55-8.917-5.342Zm-15.1,10.328,10.051-4.27,10.151,6.081a30.292,30.292,0,0,0-11.837,4.934,3.379,3.379,0,0,0-1.67-2.455c-2.168-.969-5.264.611-6.494,1.336a15.024,15.024,0,0,0-5.734,5.81l0,.006-2.882,5.535,1.311-7.938a11.875,11.875,0,0,1,7.108-9.039ZM53.047,84.662a2.612,2.612,0,0,1-2.31-3.689l.71-1.453A12.62,12.62,0,0,0,54.9,81.582a30,30,0,0,0-1.561,3.061A2.516,2.516,0,0,1,53.047,84.662Zm5.787-5.625c-2.157,1.137-4.86-.861-6.112-1.969,2.26-3.447,6.888-5.5,8.173-5.112a4.822,4.822,0,0,1,.369,2.462c0,.006,0,.013,0,.019a7.839,7.839,0,0,1-.1.832,5.14,5.14,0,0,1-2.334,3.768Zm19.8-12.382-.132-.3L81.037,60.2l1.314,3.189L83.59,66.4l-.094.26q-1.224-.1-2.458-.1-1.205,0-2.4.1Zm22.292,8.613a5.566,5.566,0,0,1,.272-3.313c1.285-.39,5.916,1.668,8.175,5.115-1.247,1.109-3.943,3.111-6.113,1.966A5.14,5.14,0,0,1,100.929,75.268Zm10.243,8.213a2.594,2.594,0,0,1-2.444,1.158,30.032,30.032,0,0,0-1.554-3.049,12.605,12.605,0,0,0,3.475-2.069,10.007,10.007,0,0,1,.871,1.879A2.683,2.683,0,0,1,111.173,83.481Z" transform="translate(-42.922 0)"/>
          <path id="Path_19201" data-name="Path 19201" d="M144.932,403.717a1.343,1.343,0,0,0-1.049-.33,24.721,24.721,0,0,0-20.822,17.521,1.343,1.343,0,0,0,2.573.767A22.042,22.042,0,0,1,142.7,406.281v12.051a12.608,12.608,0,0,1-.287,2.673,1.344,1.344,0,0,0,2.624.57,15.307,15.307,0,0,0,.348-3.243V404.72A1.341,1.341,0,0,0,144.932,403.717Z" transform="translate(-108.668 -331.172)"/>
          <path id="Path_19202" data-name="Path 19202" d="M265.178,403.386a1.343,1.343,0,0,0-1.5,1.334v13.613a15.3,15.3,0,0,0,.348,3.243,1.344,1.344,0,0,0,2.624-.57,12.609,12.609,0,0,1-.287-2.673V406.281a22.042,22.042,0,0,1,17.063,15.393,1.343,1.343,0,0,0,2.573-.767,24.721,24.721,0,0,0-20.822-17.521Z" transform="translate(-224.163 -331.172)"/>
          <path id="Path_19203" data-name="Path 19203" d="M227.816,250.044a7.759,7.759,0,0,0,5.752-2.582c1.137-1.237-.788-3.111-1.977-1.817a5.014,5.014,0,0,1-7.55,0c-1.137-1.237-3.166.524-1.977,1.817a7.759,7.759,0,0,0,5.752,2.582Z" transform="translate(-189.7 -201.315)"/>
        </g>
      </g>
      <g id="Group_16476" data-name="Group 16476" transform="translate(-30.621 165)">
        <g id="placeholder_2_" data-name="placeholder (2)" transform="translate(927.029 291.064)">
          <path id="Path_19173" data-name="Path 19173" d="M167.3,364.435a4.725,4.725,0,1,1,4.725-4.725A4.73,4.73,0,0,1,167.3,364.435Zm0-6.75a2.025,2.025,0,1,0,2.025,2.025A2.027,2.027,0,0,0,167.3,357.686Z" transform="translate(-131.495 -328.202)" fill="#3c8ef9"/>
          <path id="Path_19174" data-name="Path 19174" d="M414.6,12.522a1.636,1.636,0,0,1-1.157-.479l-4.626-4.626a1.636,1.636,0,0,1,0-2.313L413.439.478a1.636,1.636,0,0,1,2.313,0L420.378,5.1a1.636,1.636,0,0,1,0,2.313l-4.626,4.626A1.636,1.636,0,0,1,414.6,12.522ZM412.283,6.26,414.6,8.574l2.313-2.313L414.6,3.948Z" transform="translate(-307.095)" fill="#ffc504"/>
          <path id="Path_19175" data-name="Path 19175" d="M413.817,10.965a1.433,1.433,0,0,1-1.013-.419l-4.051-4.051a1.432,1.432,0,0,1,0-2.026L412.8.418a1.433,1.433,0,0,1,2.025,0l4.051,4.051a1.432,1.432,0,0,1,0,2.025l-4.051,4.051A1.432,1.432,0,0,1,413.817,10.965Zm-2.026-5.483,2.026,2.026,2.025-2.026-2.025-2.025Z" transform="translate(-389.743 61.028)" fill="#2fc7aa"/>
        </g>
      </g>
    </g>
    <path id="add_2_" data-name="add (2)" d="M14.691,6.625h-4.9a.288.288,0,0,1-.288-.288V1.44a1.44,1.44,0,0,0-2.881,0v4.9a.288.288,0,0,1-.288.288H1.44a1.44,1.44,0,0,0,0,2.881h4.9a.288.288,0,0,1,.288.288v4.9a1.44,1.44,0,0,0,2.881,0v-4.9a.288.288,0,0,1,.288-.288h4.9a1.44,1.44,0,0,0,0-2.881Zm0,0" transform="translate(987.623 483.246)" fill="#ff5d5d"/>
  </g>
</svg>
