<svg xmlns="http://www.w3.org/2000/svg" width="122.171" height="83.045" viewBox="0 0 122.171 83.045">
  <g id="No_Vehicle_Registered" data-name="No Vehicle Registered" transform="translate(-904.103 -449.789)">
    <g id="car" transform="translate(914.088 403.862)">
      <g id="Group_16689" data-name="Group 16689" transform="translate(1.484 61.541)">
        <g id="Group_16681" data-name="Group 16681" transform="translate(12.547 0)">
          <g id="Group_16680" data-name="Group 16680" transform="translate(2.259)">
            <path id="Path_19406" data-name="Path 19406" d="M134.986,124.925H98.462a12.834,12.834,0,0,0-11.941,8.131l-4.108,10.43h68.622l-4.108-10.43a12.835,12.835,0,0,0-11.942-8.131Z" transform="translate(-82.413 -124.925)" fill="#31a7fb"/>
            <path id="Path_19407" data-name="Path 19407" d="M340.015,143.484H334l-4.107-10.43a12.836,12.836,0,0,0-11.942-8.131h6.018a12.836,12.836,0,0,1,11.942,8.131Z" transform="translate(-271.393 -124.923)" fill="#1c96f9"/>
          </g>
          <path id="Path_19408" data-name="Path 19408" d="M128.273,155.092H86.838a12.676,12.676,0,0,0-11.795,8.031l-4.057,10.3h73.139l-4.058-10.3A12.677,12.677,0,0,0,128.273,155.092Z" transform="translate(-70.986 -149.129)" fill="#b5dbfd"/>
          <path id="Path_19409" data-name="Path 19409" d="M323.846,159.24a11.993,11.993,0,0,1-20.8-4.147h11.42A12.675,12.675,0,0,1,323.846,159.24Z" transform="translate(-257.18 -149.13)" fill="#8dcafc"/>
          <path id="Path_19410" data-name="Path 19410" d="M171.407,155.092h-6.36q-9.228,9.133-18.389,18.333h6.416Z" transform="translate(-131.701 -149.129)" fill="#d9ecfd"/>
          <path id="Path_19411" data-name="Path 19411" d="M106.863,155.092H97.225L78.892,173.425H88.53Z" transform="translate(-77.329 -149.129)" fill="#d9ecfd"/>
          <path id="Path_19412" data-name="Path 19412" d="M352.247,173.425h-6.018l-4.058-10.3a12.675,12.675,0,0,0-11.794-8.031H336.4a12.673,12.673,0,0,1,11.794,8.031Z" transform="translate(-279.108 -149.13)" fill="#8dcafc"/>
        </g>
        <g id="Group_16682" data-name="Group 16682" transform="translate(5.765 53.453)">
          <path id="Path_19413" data-name="Path 19413" d="M47.044,407.86h-7.05a3.32,3.32,0,0,1-3.32-3.32v-9.176h13.69v9.176A3.32,3.32,0,0,1,47.044,407.86Z" transform="translate(-36.674 -395.364)" fill="#094c66"/>
          <path id="Path_19414" data-name="Path 19414" d="M416.446,407.86H409.4a3.32,3.32,0,0,1-3.32-3.32v-9.176h13.69v9.176A3.32,3.32,0,0,1,416.446,407.86Z" transform="translate(-333.063 -395.364)" fill="#094c66"/>
        </g>
        <path id="Path_19415" data-name="Path 19415" d="M107.84,237.917H37.317l-7.142,3.744a5.193,5.193,0,0,0-2.782,4.6v23.432a6.538,6.538,0,0,0,6.538,6.538h77.3a6.538,6.538,0,0,0,6.538-6.538V246.26a5.192,5.192,0,0,0-2.782-4.6Z" transform="translate(-23.463 -215.584)" fill="#31a7fb"/>
        <g id="Group_16683" data-name="Group 16683" transform="translate(24.609 30.539)">
          <path id="Path_19416" data-name="Path 19416" d="M132.016,279.435H181.03v3.737H132.016Z" transform="translate(-132.016 -279.435)" fill="#1c96f9"/>
        </g>
        <path id="Path_19417" data-name="Path 19417" d="M419.775,246.261v23.431a6.539,6.539,0,0,1-6.539,6.539h-6.05a6.54,6.54,0,0,0,6.539-6.539V246.261a5.2,5.2,0,0,0-2.782-4.6l-7.143-3.743h6.05l7.143,3.743A5.2,5.2,0,0,1,419.775,246.261Z" transform="translate(-325.472 -215.584)" fill="#1c96f9"/>
        <path id="Path_19418" data-name="Path 19418" d="M27.394,329.194v13.734a6.538,6.538,0,0,0,6.538,6.538h77.3a6.538,6.538,0,0,0,6.538-6.538V329.194Z" transform="translate(-23.463 -288.82)" fill="#1785f8"/>
        <path id="Path_19419" data-name="Path 19419" d="M27.394,329.194h90.371v3.3H27.394Z" transform="translate(-23.463 -288.82)" fill="#1576f7"/>
        <path id="Path_19420" data-name="Path 19420" d="M433.519,329.2V342.93a6.539,6.539,0,0,1-6.539,6.539h-6.05a6.54,6.54,0,0,0,6.539-6.539V329.2Z" transform="translate(-339.217 -288.822)" fill="#1576f7"/>
        <g id="Group_16684" data-name="Group 16684" transform="translate(3.93 46.116)">
          <path id="Path_19421" data-name="Path 19421" d="M117.764,358.242v7.993a6.539,6.539,0,0,1-6.539,6.539H33.931a6.539,6.539,0,0,1-6.539-6.539v-7.993H42.266a6.41,6.41,0,0,1,4.533,1.878l1.663,1.663a2.18,2.18,0,0,0,1.542.639H95.152a2.18,2.18,0,0,0,1.542-.639l1.663-1.663a6.41,6.41,0,0,1,4.533-1.877Z" transform="translate(-27.392 -358.242)" fill="#64b9fc"/>
          <path id="Path_19422" data-name="Path 19422" d="M433.519,358.242v7.993a6.539,6.539,0,0,1-6.539,6.539h-6.05a6.54,6.54,0,0,0,6.539-6.539v-7.993Z" transform="translate(-343.147 -358.242)" fill="#31a7fb"/>
        </g>
        <g id="Group_16685" data-name="Group 16685" transform="translate(8.615 24.667)">
          <path id="Path_19423" data-name="Path 19423" d="M51.095,250.835v6.8a1.108,1.108,0,0,0,.979,1.1l12.29,1.448a7.21,7.21,0,0,0,4.812-1.141l2.2-1.448a1.108,1.108,0,0,0-.313-1.993l-11.265-3.131c-.03-.008-.06-.018-.089-.029L52.589,249.8a1.108,1.108,0,0,0-1.494,1.039Z" transform="translate(-51.095 -249.726)" fill="#d9ecfd"/>
          <path id="Path_19424" data-name="Path 19424" d="M106.148,276.34l-2.2,1.447a7.214,7.214,0,0,1-4.813,1.142l-4.7-.553a7.807,7.807,0,0,0,3.977-1.285l2.826-2.044a1.206,1.206,0,0,0,.083-1.955l4.51,1.253a1.11,1.11,0,0,1,.314,1.994Z" transform="translate(-85.87 -268.474)" fill="#bad5e4"/>
          <path id="Path_19425" data-name="Path 19425" d="M376.583,250.835v6.8a1.108,1.108,0,0,1-.979,1.1l-12.29,1.448a7.21,7.21,0,0,1-4.812-1.141l-2.2-1.448a1.108,1.108,0,0,1,.314-1.993l11.265-3.131c.03-.008.06-.018.089-.029l7.115-2.642a1.108,1.108,0,0,1,1.494,1.039Z" transform="translate(-295.581 -249.726)" fill="#d9ecfd"/>
          <path id="Path_19426" data-name="Path 19426" d="M437.938,250.835v6.8a1.107,1.107,0,0,1-.978,1.1l-4.682.551a1.1,1.1,0,0,0,.579-.97v-6.2a1.1,1.1,0,0,0-.383-.838l3.971-1.474A1.108,1.108,0,0,1,437.938,250.835Z" transform="translate(-356.936 -249.727)" fill="#bad5e4"/>
        </g>
        <g id="Group_16686" data-name="Group 16686" transform="translate(0 14.005)">
          <path id="Path_19427" data-name="Path 19427" d="M454.009,201.391h8.784a1.2,1.2,0,0,0,1.144-1.544c-.5-1.661-1.721-4.066-4.537-4.066h-3.759a1.633,1.633,0,0,0-1.633,1.633Z" transform="translate(-365.758 -195.781)" fill="#31a7fb"/>
          <path id="Path_19428" data-name="Path 19428" d="M17.488,201.391H8.7a1.2,1.2,0,0,1-1.144-1.544c.5-1.661,1.721-4.066,4.537-4.066h3.759a1.633,1.633,0,0,1,1.633,1.633Z" transform="translate(-7.507 -195.781)" fill="#31a7fb"/>
        </g>
        <g id="Group_16688" data-name="Group 16688" transform="translate(30.211 40.374)">
          <path id="Path_19429" data-name="Path 19429" d="M160.361,329.194H198.17v1.643a8.278,8.278,0,0,1-8.278,8.278H168.639a8.278,8.278,0,0,1-8.278-8.278Z" transform="translate(-160.36 -329.194)" fill="#0d5f7f"/>
          <g id="Group_16687" data-name="Group 16687" transform="translate(0 0.001)">
            <path id="Path_19430" data-name="Path 19430" d="M198.168,329.2v1.642a8.3,8.3,0,0,1-.166,1.654H160.523a8.3,8.3,0,0,1-.166-1.654V329.2Z" transform="translate(-160.357 -329.197)" fill="#094c66"/>
            <path id="Path_19431" data-name="Path 19431" d="M294.64,329.2v1.642a8.278,8.278,0,0,1-8.278,8.278H280.6a8.278,8.278,0,0,0,8.278-8.278V329.2Z" transform="translate(-256.83 -329.197)" fill="#094c66"/>
          </g>
        </g>
      </g>
      <g id="Group_16692" data-name="Group 16692" transform="translate(0 45.927)">
        <g id="Group_16690" data-name="Group 16690" transform="translate(60.142 1.482)">
          <circle id="Ellipse_382" data-name="Ellipse 382" cx="11.993" cy="11.993" r="11.993" transform="translate(0 0.001)" fill="#23f1a8"/>
          <path id="Path_19432" data-name="Path 19432" d="M365.037,65.418A12,12,0,0,1,350.108,77.05a12,12,0,0,0,0-23.264,12,12,0,0,1,14.929,11.632Z" transform="translate(-341.051 -53.425)" fill="#26d192"/>
        </g>
        <g id="Group_16691" data-name="Group 16691" transform="translate(0 0)">
          <path id="Path_19433" data-name="Path 19433" d="M409.032,378.884a1.482,1.482,0,0,0,0-2.965h-4.473a1.482,1.482,0,0,0,0,2.965Z" transform="translate(-323.408 -310.696)"/>
          <path id="Path_19434" data-name="Path 19434" d="M72.788,375.919a1.482,1.482,0,0,0,0,2.965h4.473a1.482,1.482,0,1,0,0-2.965Z" transform="translate(-57.212 -310.696)"/>
          <path id="Path_19435" data-name="Path 19435" d="M101.083,79.181c-.987-3.252-3.158-5.117-5.955-5.117H91.368a3.119,3.119,0,0,0-3.115,3.115v2.495H86.335S82.04,68.782,81.963,68.607a13.4,13.4,0,0,0,3.148-5.572,1.482,1.482,0,0,0-2.855-.8,10.511,10.511,0,1,1,0-5.659,1.482,1.482,0,0,0,2.856-.795A13.475,13.475,0,0,0,58.66,59.4c0,.22.006.439.017.657H32.339A14.238,14.238,0,0,0,19.018,69.13L14.866,79.673H12.947V77.179a3.119,3.119,0,0,0-3.115-3.115H6.074c-2.8,0-4.968,1.865-5.955,5.117a2.678,2.678,0,0,0,2.563,3.457H13.7s-.167.445-.183.518L7.509,86.3a6.656,6.656,0,0,0-3.576,5.912v23.432a7.984,7.984,0,0,0,1.835,5.1v3.42a4.808,4.808,0,0,0,4.8,4.8h7.048a4.808,4.808,0,0,0,4.8-4.8v-.5h7.243a1.482,1.482,0,0,0,0-2.965H11.953A5.062,5.062,0,0,1,6.9,115.649v-6.51H20.288a4.9,4.9,0,0,1,3.484,1.443l1.664,1.664a3.638,3.638,0,0,0,2.59,1.073H73.174a3.639,3.639,0,0,0,2.59-1.073l1.664-1.664a4.9,4.9,0,0,1,3.484-1.443H94.3v6.51a5.062,5.062,0,0,1-5.056,5.056H36.12a1.482,1.482,0,0,0,0,2.965H78.779v.5a4.808,4.808,0,0,0,4.8,4.8h7.048a4.808,4.808,0,0,0,4.8-4.8v-3.42a7.983,7.983,0,0,0,1.835-5.1V92.217A6.656,6.656,0,0,0,93.692,86.3l-6.007-3.149c-.017-.073-.183-.518-.183-.518H98.52a2.678,2.678,0,0,0,2.563-3.457Zm-91.1.493H3.076c.621-1.756,1.628-2.645,3-2.645H9.832a.15.15,0,0,1,.15.15ZM8.732,122.992a7.971,7.971,0,0,0,3.221.677h7.5v.5a1.84,1.84,0,0,1-1.838,1.838H10.57a1.84,1.84,0,0,1-1.838-1.838Zm83.737,1.177a1.84,1.84,0,0,1-1.838,1.838H83.582a1.84,1.84,0,0,1-1.838-1.838v-.5h7.5a7.971,7.971,0,0,0,3.221-.677Zm-29.8-55.192h0S62.66,68.978,62.665,68.977ZM32.339,63.024H59.159a13.4,13.4,0,0,0,1.246,3H29.883a14.168,14.168,0,0,0-6.738,1.69A11.28,11.28,0,0,1,32.339,63.024ZM15.7,85.356H62.186a1.482,1.482,0,1,0,0-2.965h-45.2l2.486-6.313h0a11.129,11.129,0,0,1,10.414-7.092h32.79a13.42,13.42,0,0,0,15.583,2.41,11.19,11.19,0,0,1,3.476,4.683l2.486,6.313H68.641a1.482,1.482,0,0,0,0,2.965H85.5l.968.508-4.474,1.661L70.936,90.6H30.265L19.209,87.525l-4.474-1.661Zm-4.122,2.5,6.609,2.454,10.683,2.979-1.509,1a5.731,5.731,0,0,1-3.823.906l-11.96-1.409V87.855Zm16.445,22.5a.693.693,0,0,1-.494-.2l-1.664-1.664a7.841,7.841,0,0,0-5.581-2.312H6.9V103.4H30.213v.161a9.724,9.724,0,0,0,2.764,6.8H28.026Zm40-6.8a6.8,6.8,0,0,1-6.8,6.8H39.973a6.8,6.8,0,0,1-6.8-6.8V103.4H68.023ZM94.3,106.174H80.912a7.841,7.841,0,0,0-5.581,2.312l-1.663,1.663a.693.693,0,0,1-.494.2H68.224a9.725,9.725,0,0,0,2.764-6.8V103.4H94.3Zm-1.72-12.06V89.087a3.7,3.7,0,0,1,1.72,3.13v8.216H6.9V92.217a3.7,3.7,0,0,1,1.72-3.13v5.027A2.592,2.592,0,0,0,10.9,96.687l12.29,1.448A8.7,8.7,0,0,0,29,96.759l2.2-1.448a2.561,2.561,0,0,0,1.133-1.748H68.876a2.56,2.56,0,0,0,1.133,1.748l2.2,1.448a8.7,8.7,0,0,0,5.8,1.376L90.3,96.687a2.591,2.591,0,0,0,2.287-2.573Zm-2.965-6.259v5.926L77.659,95.19a5.731,5.731,0,0,1-3.823-.906l-1.509-1L83.009,90.31Zm1.6-8.182V77.179a.15.15,0,0,1,.15-.15h3.759c1.369,0,2.376.889,3,2.645Z" transform="translate(0 -45.927)"/>
        </g>
      </g>
    </g>
    <path id="add_2_" data-name="add (2)" d="M10.865,4.9H7.243a.213.213,0,0,1-.213-.213V1.065a1.065,1.065,0,0,0-2.13,0V4.687a.213.213,0,0,1-.213.213H1.065a1.065,1.065,0,0,0,0,2.13H4.687a.213.213,0,0,1,.213.213v3.622a1.065,1.065,0,0,0,2.13,0V7.243a.213.213,0,0,1,.213-.213h3.622a1.065,1.065,0,0,0,0-2.13Zm0,0" transform="translate(980.723 457.347)"/>
    <g id="Group_16476" data-name="Group 16476" transform="translate(-28.518 172.942)">
      <g id="placeholder_2_" data-name="placeholder (2)" transform="translate(940.029 286.064)">
        <path id="Path_19173" data-name="Path 19173" d="M167.3,364.435a4.725,4.725,0,1,1,4.725-4.725A4.73,4.73,0,0,1,167.3,364.435Zm0-6.75a2.025,2.025,0,1,0,2.025,2.025A2.027,2.027,0,0,0,167.3,357.686Z" transform="translate(-156.495 -363.188)" fill="#3c8ef9"/>
        <path id="Path_19174" data-name="Path 19174" d="M414.6,12.522a1.636,1.636,0,0,1-1.157-.479l-4.626-4.626a1.636,1.636,0,0,1,0-2.313L413.439.478a1.636,1.636,0,0,1,2.313,0L420.378,5.1a1.636,1.636,0,0,1,0,2.313l-4.626,4.626A1.636,1.636,0,0,1,414.6,12.522ZM412.283,6.26,414.6,8.574l2.313-2.313L414.6,3.948Z" transform="translate(-306.095 28)" fill="#ffc504"/>
        <path id="Path_19175" data-name="Path 19175" d="M413.817,10.965a1.433,1.433,0,0,1-1.013-.419l-4.051-4.051a1.432,1.432,0,0,1,0-2.026L412.8.418a1.433,1.433,0,0,1,2.025,0l4.051,4.051a1.432,1.432,0,0,1,0,2.025l-4.051,4.051A1.432,1.432,0,0,1,413.817,10.965Zm-2.026-5.483,2.026,2.026,2.025-2.026-2.025-2.025Z" transform="translate(-415.743 52.028)" fill="#2fc7aa"/>
      </g>
    </g>
  </g>
</svg>
