<svg xmlns="http://www.w3.org/2000/svg" xmlns:xlink="http://www.w3.org/1999/xlink" width="37.445" height="37.447" viewBox="0 0 37.445 37.447">
  <defs>
    <linearGradient id="linear-gradient" x1="0.5" x2="0.5" y2="1" gradientUnits="objectBoundingBox">
      <stop offset="0" stop-color="#2fc7aa"/>
      <stop offset="1" stop-color="#3c8ef9"/>
    </linearGradient>
  </defs>
  <g id="Vehicle_profile" data-name="Vehicle profile" transform="translate(-305 -380)">
    <g id="user_1_" data-name="user (1)" transform="translate(305.002 380)">
      <path id="Union_21" data-name="Union 21" d="M18605.322-5690.959a4.933,4.933,0,0,1,.893-.636,4.9,4.9,0,0,0-.889.631,18.69,18.69,0,0,1-6.674-14.635,18.729,18.729,0,0,1,19.041-18.4,18.723,18.723,0,0,1,18.4,19.041,18.677,18.677,0,0,1-6.738,14.057l0,0a18.617,18.617,0,0,1-11.982,4.345A18.639,18.639,0,0,1,18605.322-5690.959Zm4.537-14.237a1.879,1.879,0,0,0,.865,1.576,12.489,12.489,0,0,0,2.264,4.687v2.287a2.271,2.271,0,0,1-1.187,2l-5.586,3.049,5.59-3.049a2.278,2.278,0,0,0,1.188-2v-2.287a12.485,12.485,0,0,1-2.268-4.687A1.888,1.888,0,0,1,18609.859-5705.2Zm11.838,5.533c-.207.29-.4.538-.566.729v0c.168-.192.359-.439.566-.729Zm-11.832-8.193a1.869,1.869,0,0,1,.621-1.231v0A1.89,1.89,0,0,0,18609.865-5707.857Zm14.4-1.231c.023.021.047.042.068.063-.021-.021-.045-.043-.068-.063Zm-13.777-3.625a3.026,3.026,0,0,1-.02-.405A3.026,3.026,0,0,0,18610.486-5712.713Z" transform="translate(-18598.652 5724)" fill="url(#linear-gradient)"/>
    </g>
    <path id="car_4_" data-name="car (4)" d="M19.549,6.827,18.066,1.884A2.627,2.627,0,0,0,15.534,0H5.608A2.627,2.627,0,0,0,3.076,1.884L1.594,6.827A2.644,2.644,0,0,0,0,9.25v5.286a1.321,1.321,0,0,0,1.321,1.321h0v1.321A1.321,1.321,0,0,0,2.643,18.5H3.964a1.321,1.321,0,0,0,1.321-1.321V15.857H15.857v1.321A1.321,1.321,0,0,0,17.178,18.5H18.5a1.321,1.321,0,0,0,1.321-1.321V15.857h0a1.321,1.321,0,0,0,1.321-1.321V9.25a2.644,2.644,0,0,0-1.594-2.423ZM5.608,2.643h9.926l1.189,3.964H4.419L5.608,2.643Zm-.323,9.91a1.321,1.321,0,1,1,1.321-1.321A1.321,1.321,0,0,1,5.286,12.553Zm10.571,0a1.321,1.321,0,1,1,1.321-1.321A1.321,1.321,0,0,1,15.857,12.553Z" transform="translate(313.787 389.813)" fill="#f1f1f1"/>
  </g>
</svg>
