<svg id="light_theme" data-name="light theme" xmlns="http://www.w3.org/2000/svg" width="21.096" height="21.094" viewBox="0 0 21.096 21.094">
  <path id="Path_18983" data-name="Path 18983" d="M117.824,111.274a6.032,6.032,0,0,0-.618-.032,5.961,5.961,0,1,0,.618.032Z" transform="translate(-106.659 -106.659)" fill="#2f2e5d"/>
  <path id="Path_18984" data-name="Path 18984" d="M241.618,3.689a.618.618,0,0,0,.618-.618V.618a.618.618,0,0,0-1.236,0V3.071A.618.618,0,0,0,241.618,3.689Zm0,0" transform="translate(-231.071)" fill="#2f2e5d"/>
  <path id="Path_18985" data-name="Path 18985" d="M241.618,422.457a.618.618,0,0,0-.618.618v2.453a.618.618,0,0,0,1.236,0v-2.453A.618.618,0,0,0,241.618,422.457Zm0,0" transform="translate(-231.071 -405.052)" fill="#2f2e5d"/>
  <path id="Path_18986" data-name="Path 18986" d="M3.689,241.618A.618.618,0,0,0,3.071,241H.618a.618.618,0,1,0,0,1.236H3.071A.618.618,0,0,0,3.689,241.618Zm0,0" transform="translate(0 -231.071)" fill="#2f2e5d"/>
  <path id="Path_18987" data-name="Path 18987" d="M425.528,241h-2.453a.618.618,0,1,0,0,1.236h2.453a.618.618,0,0,0,0-1.236Zm0,0" transform="translate(-405.052 -231.071)" fill="#2f2e5d"/>
  <path id="Path_18988" data-name="Path 18988" d="M67.769,68.643a.618.618,0,0,0,.874-.874l-1.783-1.783a.618.618,0,0,0-.874.874Zm0,0" transform="translate(-63.093 -63.093)" fill="#2f2e5d"/>
  <path id="Path_18989" data-name="Path 18989" d="M373.968,373.091a.618.618,0,0,0-.874.874l1.783,1.783a.618.618,0,0,0,.874-.874Zm0,0" transform="translate(-357.549 -357.547)" fill="#2f2e5d"/>
  <path id="Path_18990" data-name="Path 18990" d="M67.771,373.091l-1.783,1.783a.618.618,0,1,0,.874.874l1.783-1.783a.618.618,0,0,0-.874-.874Zm0,0" transform="translate(-63.096 -357.547)" fill="#2f2e5d"/>
  <path id="Path_18991" data-name="Path 18991" d="M373.528,68.824a.616.616,0,0,0,.437-.181l1.783-1.783a.618.618,0,1,0-.874-.874l-1.783,1.783a.618.618,0,0,0,.437,1.055Zm0,0" transform="translate(-357.546 -63.094)" fill="#2f2e5d"/>
</svg>
