<svg id="notification" xmlns="http://www.w3.org/2000/svg" width="15.291" height="16.679" viewBox="0 0 15.291 16.679">
  <path id="Path_260" data-name="Path 260" d="M357.847,23.036a.7.7,0,0,1-.695-.695,7.251,7.251,0,0,0-2.137-5.16A.695.695,0,0,1,356,16.2a8.629,8.629,0,0,1,2.544,6.143.7.7,0,0,1-.695.695Zm0,0" transform="translate(-343.253 -15.474)" fill="#2f2e5d"/>
  <path id="Path_261" data-name="Path 261" d="M.695,23.036A.7.7,0,0,1,0,22.342,8.63,8.63,0,0,1,2.544,16.2a.695.695,0,1,1,.983.983,7.249,7.249,0,0,0-2.137,5.16.7.7,0,0,1-.7.695Zm0,0" transform="translate(0 -15.474)" fill="#2f2e5d"/>
  <path id="Path_262" data-name="Path 262" d="M34.8,11.754a4.655,4.655,0,0,1-1.653-3.562V6.255a4.869,4.869,0,0,0-4.17-4.809V.7a.7.7,0,0,0-1.39,0v.751a4.868,4.868,0,0,0-4.17,4.809V8.192a4.66,4.66,0,0,1-1.66,3.567,1.216,1.216,0,0,0,.791,2.14H34.016a1.216,1.216,0,0,0,.785-2.145Zm0,0" transform="translate(-20.637 0)" fill="#2f2e5d"/>
  <path id="Path_263" data-name="Path 263" d="M158.842,450.085A2.61,2.61,0,0,0,161.4,448h-5.107a2.61,2.61,0,0,0,2.553,2.085Zm0,0" transform="translate(-151.197 -433.406)" fill="#2f2e5d"/>
</svg>
