<svg id="overspeed" xmlns="http://www.w3.org/2000/svg" width="57.887" height="49.351" viewBox="0 0 57.887 49.351">
  <path id="Path_3805" data-name="Path 3805" d="M73.082,74.269a1.127,1.127,0,0,0,.8-.331l.007-.006a1.131,1.131,0,0,0-1.582-1.616l-.024.024a1.131,1.131,0,0,0,.8,1.929Zm0,0" transform="translate(-63.816 -63.857)" fill="#f36d8f"/>
  <path id="Path_3806" data-name="Path 3806" d="M57.643,25.187a29.112,29.112,0,0,0-8.222-16.7A28.969,28.969,0,0,0,12.206,5.322a1.131,1.131,0,1,0,1.309,1.844q.547-.388,1.11-.746l2.812,4.871a21.156,21.156,0,0,0-6.155,6.165L6.41,14.645a26.464,26.464,0,0,1,1.652-2.321,1.131,1.131,0,0,0-1.769-1.409,28.977,28.977,0,0,0-2.42,32.508,5.054,5.054,0,1,0,8.763-5.038A18.827,18.827,0,0,1,42.25,15.654,18.663,18.663,0,0,1,47.613,26.5a18.851,18.851,0,0,1-.143,5.884L35.787,27.962a6.907,6.907,0,1,0-1.415,5.287L46.7,35.263a19.041,19.041,0,0,1-1.446,3.123,5.054,5.054,0,0,0,8.763,5.039,29.081,29.081,0,0,0,3.63-18.238ZM10.677,39.513a2.793,2.793,0,1,1-4.844,2.781,26.443,26.443,0,0,1-3.557-12.2h5.61a21.206,21.206,0,0,0,2.791,9.422ZM8.032,26.2c-.072.541-.12,1.084-.149,1.627h-5.6q.052-1.171.205-2.348a26.81,26.81,0,0,1,2.8-8.877l4.868,2.81A21.018,21.018,0,0,0,8.032,26.2Zm17.621,6.051a4.655,4.655,0,1,1,7.5-5.289l-3.225-1.22a3.012,3.012,0,0,0-2.466.16,3.464,3.464,0,0,0-1.329,4.961,3.013,3.013,0,0,0,2.055,1.372l3.4.556a4.662,4.662,0,0,1-5.933-.541Zm8.388-1.35-.009,0-5.483-.9a.781.781,0,0,1-.521-.367,1.2,1.2,0,0,1,.462-1.722.873.873,0,0,1,.392-.1.681.681,0,0,1,.242.044l5.182,1.96.033.012L39.551,31.8ZM30.074,7.912V2.288a26.515,26.515,0,0,1,11.233,3l-2.813,4.873a20.936,20.936,0,0,0-8.419-2.246ZM16.581,5.286a26.489,26.489,0,0,1,11.232-3V7.912a20.936,20.936,0,0,0-8.419,2.246ZM40.45,11.292l2.814-4.874a26.983,26.983,0,0,1,8.219,8.223l-4.877,2.816a21.159,21.159,0,0,0-6.156-6.166Zm7.287,8.124L52.614,16.6A26.712,26.712,0,0,1,55.4,25.482q.154,1.176.205,2.348H50q-.043-.815-.149-1.627a21.009,21.009,0,0,0-2.118-6.787ZM52.052,42.3a2.792,2.792,0,0,1-4.843-2.781,20.961,20.961,0,0,0,1.741-3.884l1.378.225a1.131,1.131,0,0,0,.583-2.174L49.6,33.188a21.354,21.354,0,0,0,.4-3.1H55.61a26.439,26.439,0,0,1-3.558,12.2Zm0,0" transform="translate(0 -0.001)" fill="#f36d8f"/>
  <path id="Path_3807" data-name="Path 3807" d="M200.692,354.5H187.123a1.13,1.13,0,0,0-1.131,1.131v3.618a1.131,1.131,0,0,0,1.131,1.131h13.569a1.131,1.131,0,0,0,1.131-1.131v-3.618A1.131,1.131,0,0,0,200.692,354.5Zm-1.131,3.618H188.254v-1.357h11.307Zm0,0" transform="translate(-164.964 -314.417)" fill="#f36d8f"/>
  <path id="Path_3808" data-name="Path 3808" d="M99.307,246.145a1.131,1.131,0,0,0,0,2.261h.027a1.131,1.131,0,0,0,0-2.261Zm0,0" transform="translate(-87.076 -218.316)" fill="#f36d8f"/>
  <path id="Path_3809" data-name="Path 3809" d="M174.225,118.717l-.013-.023a1.131,1.131,0,1,0-1.958,1.131l.013.023a1.131,1.131,0,1,0,1.958-1.131Zm0,0" transform="translate(-152.644 -104.773)" fill="#f36d8f"/>
  <path id="Path_3810" data-name="Path 3810" d="M320.937,120.431a1.13,1.13,0,0,0,.98-.565l.013-.023a1.131,1.131,0,1,0-1.958-1.131l-.013.023a1.131,1.131,0,0,0,.978,1.7Zm0,0" transform="translate(-283.649 -104.788)" fill="#f36d8f"/>
  <path id="Path_3811" data-name="Path 3811" d="M394.743,248.438a1.131,1.131,0,0,0,0-2.262h-.026a1.131,1.131,0,1,0,0,2.262Zm0,0" transform="translate(-349.087 -218.344)" fill="#f36d8f"/>
  <path id="Path_3812" data-name="Path 3812" d="M212.153,416.5h-.026a1.131,1.131,0,1,0,0,2.261h.026a1.131,1.131,0,1,0,0-2.261Zm0,0" transform="translate(-187.141 -369.414)" fill="#f36d8f"/>
  <path id="Path_3813" data-name="Path 3813" d="M245.736,416.5H241.1a1.131,1.131,0,0,0,0,2.262h4.64a1.131,1.131,0,0,0,0-2.262Zm0,0" transform="translate(-212.835 -369.414)" fill="#f36d8f"/>
</svg>
