<svg xmlns="http://www.w3.org/2000/svg" width="48.84" height="54.942" viewBox="0 0 48.84 54.942">
  <g id="POl_Alert" data-name="POl Alert" transform="translate(0)">
    <path id="Path_1818" data-name="Path 1818" d="M95.22,175.912a1.073,1.073,0,0,1,1.016-.729h.156V159.623a13.628,13.628,0,0,1,27.256,0v15.561h.156a1.073,1.073,0,0,1,1.016.729l2.691,7.941a1.073,1.073,0,0,1-1.016,1.417H93.546a1.073,1.073,0,0,1-1.016-1.417ZM121.5,159.623a11.482,11.482,0,1,0-22.963,0v15.561H121.5V159.623Zm3.5,23.5-1.964-5.795H97.006l-1.963,5.795Z" transform="translate(-85.6 -130.329)" fill="#ae7ceb"/>
    <path id="Path_1819" data-name="Path 1819" d="M247.073,8.585A1.073,1.073,0,0,1,246,7.511V1.073a1.073,1.073,0,1,1,2.146,0V7.511A1.073,1.073,0,0,1,247.073,8.585Z" transform="translate(-222.653 0)" fill="#ae7ceb"/>
    <path id="Path_1820" data-name="Path 1820" d="M247.073,101.109a1.072,1.072,0,1,1,.759-.313A1.08,1.08,0,0,1,247.073,101.109Z" transform="translate(-222.653 -88.344)" fill="#ae7ceb"/>
    <path id="Path_1821" data-name="Path 1821" d="M39.587,268.732a1.073,1.073,0,0,1,1.073-1.073h4.927a1.073,1.073,0,1,1,0,2.146H40.66A1.073,1.073,0,0,1,39.587,268.732Z" transform="translate(0.982 -238.937)" fill="#ae7ceb"/>
    <path id="Path_1823" data-name="Path 1823" d="M157.942,55.087a1.073,1.073,0,0,1-1.983-.821l1.454-3.511a1.073,1.073,0,0,1,1.983.821Z" transform="translate(-124.315 -44.717)" fill="#ae7ceb"/>
    <path id="Path_1824" data-name="Path 1824" d="M29.5,181.141a1.073,1.073,0,0,1-.411-2.065l3.511-1.454a1.073,1.073,0,1,1,.821,1.983l-3.511,1.454A1.075,1.075,0,0,1,29.5,181.141Z" transform="translate(14.751 -158.488)" fill="#ae7ceb"/>
    <path id="Path_1825" data-name="Path 1825" d="M411.735,267.66h4.927a1.073,1.073,0,0,1,0,2.146h-4.927a1.073,1.073,0,1,1,0-2.146Z" transform="translate(-409.912 -238.938)" fill="#ae7ceb"/>
    <path id="Path_1827" data-name="Path 1827" d="M393.826,84.406a1.07,1.07,0,0,1-.759-.314l-5.28-5.28a1.073,1.073,0,0,1,1.518-1.518l5.28,5.28a1.073,1.073,0,0,1-.759,1.832Z" transform="translate(-384.588 -68.719)" fill="#ae7ceb"/>
    <path id="Path_1828" data-name="Path 1828" d="M57.153,84.095a1.073,1.073,0,0,1-1.518-1.518l5.28-5.28a1.073,1.073,0,1,1,1.518,1.518Z" transform="translate(-16.793 -68.722)" fill="#ae7ceb"/>
    <path id="Path_1829" data-name="Path 1829" d="M325.5,55.668a1.072,1.072,0,0,1-1.4-.581l-1.455-3.511a1.073,1.073,0,0,1,1.983-.821l1.454,3.511A1.073,1.073,0,0,1,325.5,55.668Z" transform="translate(-308.887 -44.717)" fill="#ae7ceb"/>
    <path id="Path_1830" data-name="Path 1830" d="M432.326,177.62l3.511,1.454a1.073,1.073,0,1,1-.821,1.983l-3.511-1.454a1.073,1.073,0,0,1,.821-1.983Z" transform="translate(-430.842 -158.487)" fill="#ae7ceb"/>
  </g>
</svg>
