<svg xmlns="http://www.w3.org/2000/svg" width="54.805" height="54.382" viewBox="0 0 54.805 54.382">
  <g id="Power_Cut" data-name="Power Cut" transform="translate(0 -1.976)">
    <g id="Group_16534" data-name="Group 16534" transform="translate(0 12.99)">
      <g id="Group_16533" data-name="Group 16533" transform="translate(0)">
        <path id="Path_19294" data-name="Path 19294" d="M11.99,136.609a4.538,4.538,0,0,0-5.234-.851,25.42,25.42,0,0,1,.052-29.2,1.07,1.07,0,0,0-1.744-1.242,27.422,27.422,0,0,0,.053,31.828,4.535,4.535,0,1,0,6.873-.537Zm-1.514,4.9a2.394,2.394,0,1,1,0-3.386A2.4,2.4,0,0,1,10.476,141.509Z" transform="translate(0 -104.869)" fill="#ff7443"/>
      </g>
    </g>
    <g id="Group_16536" data-name="Group 16536" transform="translate(14.771 7.481)">
      <g id="Group_16535" data-name="Group 16535">
        <path id="Path_19295" data-name="Path 19295" d="M166.9,95.979a1.07,1.07,0,0,0-1.494-.241,24.949,24.949,0,0,1-10.224,4.354,2.93,2.93,0,0,1-3.463-2.876V89.37h.093a2.25,2.25,0,0,0,2.248-2.248V85.315a9.649,9.649,0,0,0,6.208-9V71.243a4.067,4.067,0,0,0-.535-7.955V56.615a3.211,3.211,0,0,0-6.422,0v6.637h-5.352V56.615a3.211,3.211,0,0,0-6.422,0v6.673A4.067,4.067,0,0,0,141,71.243v5.068a9.649,9.649,0,0,0,6.208,9v1.807a2.25,2.25,0,0,0,2.248,2.248h.121v7.846a5.069,5.069,0,0,0,5.07,5.065,5.123,5.123,0,0,0,.918-.083,27.073,27.073,0,0,0,11.095-4.725A1.07,1.07,0,0,0,166.9,95.979ZM155.448,56.615a1.07,1.07,0,1,1,2.141,0v6.637h-2.141Zm-11.775,0a1.07,1.07,0,1,1,2.141,0v6.637h-2.141Zm-3.532,10.7a1.929,1.929,0,0,1,1.927-1.927h17.127a1.927,1.927,0,1,1,0,3.853H142.068A1.929,1.929,0,0,1,140.141,67.319Zm3,8.991V71.387h14.986v4.924a7.493,7.493,0,1,1-14.986,0Zm7.533,10.918h-1.218a.107.107,0,0,1-.107-.107V85.859a9.654,9.654,0,0,0,2.569,0v1.263a.107.107,0,0,1-.107.107Z" transform="translate(-138 -53.404)" fill="#ff7443"/>
      </g>
    </g>
    <g id="Group_16538" data-name="Group 16538" transform="translate(44.949 46.866)">
      <g id="Group_16537" data-name="Group 16537">
        <path id="Path_19296" data-name="Path 19296" d="M421.73,421.64a1.07,1.07,0,0,0-1.491.029l-.024.025a1.07,1.07,0,0,0,1.543,1.484l.024-.025A1.07,1.07,0,0,0,421.73,421.64Z" transform="translate(-419.927 -421.352)" fill="#ff7443"/>
      </g>
    </g>
    <g id="Group_16540" data-name="Group 16540" transform="translate(11.085 1.976)">
      <g id="Group_16539" data-name="Group 16539" transform="translate(0 0)">
        <path id="Path_19297" data-name="Path 19297" d="M147.21,27.316A27.462,27.462,0,0,0,104.015,6.98a1.07,1.07,0,1,0,1.236,1.748,25.554,25.554,0,0,1,32.492,2.727,25.114,25.114,0,0,1,2.55,32.75,1.07,1.07,0,1,0,1.728,1.264A27.4,27.4,0,0,0,147.21,27.316Z" transform="translate(-103.563 -1.976)" fill="#ff7443"/>
      </g>
    </g>
    <g id="Group_16542" data-name="Group 16542" transform="translate(7.568 9.755)">
      <g id="Group_16541" data-name="Group 16541" transform="translate(0 0)">
        <path id="Path_19298" data-name="Path 19298" d="M72.547,74.957a1.07,1.07,0,0,0-1.514.007l-.017.018a1.07,1.07,0,0,0,1.521,1.507l.017-.018A1.07,1.07,0,0,0,72.547,74.957Z" transform="translate(-70.706 -74.647)" fill="#ff7443"/>
      </g>
    </g>
    <g id="Group_16544" data-name="Group 16544" transform="translate(24.843 25.945)">
      <g id="Group_16543" data-name="Group 16543">
        <path id="Path_19299" data-name="Path 19299" d="M237.064,229.95a1.07,1.07,0,0,0-.925-.531h-.765l1.409-1.78a1.07,1.07,0,0,0-1.679-1.329l-2.782,3.514a1.07,1.07,0,0,0,.839,1.735H234.3l-1.311,2.314a1.07,1.07,0,1,0,1.863,1.055l2.216-3.912A1.07,1.07,0,0,0,237.064,229.95Z" transform="translate(-232.091 -225.904)" fill="#ff7443"/>
      </g>
    </g>
  </g>
</svg>
