<svg id="transporter_profile" data-name="transporter profile" xmlns="http://www.w3.org/2000/svg" width="48" height="48.001" viewBox="0 0 48 48.001">
  <g id="Group_217" data-name="Group 217">
    <g id="Group_203" data-name="Group 203" transform="translate(0 0.014)">
      <path id="Path_186" data-name="Path 186" d="M24,45.448l9.509-2.4A24.574,24.574,0,0,0,23.176.149,24,24,0,0,0,7.107,41.182Z" transform="translate(0 -0.149)" fill="#cbe2ff"/>
    </g>
    <g id="Group_204" data-name="Group 204" transform="translate(20.949)">
      <path id="Path_187" data-name="Path 187" d="M244.406,24a23.963,23.963,0,0,1-9.634,19.226l8.628-2.179A24,24,0,0,0,226.508,0a24.234,24.234,0,0,0-3.051.192A24,24,0,0,1,244.406,24Z" transform="translate(-223.457 0)" fill="#bed8fb"/>
    </g>
    <g id="Group_216" data-name="Group 216" transform="translate(6.566 6.87)">
      <g id="Group_215" data-name="Group 215">
        <g id="Group_214" data-name="Group 214">
          <path id="Path_188" data-name="Path 188" d="M174.856,75.5a2.219,2.219,0,0,0-2.219-2.219h-7.648a5.108,5.108,0,0,0-5.108,5.108v5.671H177.9V78.466a2.219,2.219,0,0,0-2.219-2.219h-.075A.75.75,0,0,1,174.856,75.5Z" transform="translate(-151.457 -73.278)" fill="#365e7d"/>
          <path id="Path_189" data-name="Path 189" d="M290.884,76.246h-.075a.75.75,0,0,1-.75-.75,2.219,2.219,0,0,0-2.219-2.219H287V84.056h6.1V78.465A2.219,2.219,0,0,0,290.884,76.246Z" transform="translate(-266.661 -73.277)" fill="#2b4d66"/>
          <path id="Path_190" data-name="Path 190" d="M103.314,337.414a5.321,5.321,0,0,0-2.137-1.289l-6.552-2.075-7.158-.252-7.161.252-6.552,2.075a5.333,5.333,0,0,0-3.723,5.084V343a23.93,23.93,0,0,0,16.611,7.493,24.616,24.616,0,0,0,16.672-13.078Z" transform="translate(-70.032 -309.375)" fill="#4a80aa"/>
          <path id="Path_191" data-name="Path 191" d="M244,374.56v-1.79a5.332,5.332,0,0,0-1.979-4.145,24.02,24.02,0,0,1-18.5,13.248,24.215,24.215,0,0,0,3,.193,25.665,25.665,0,0,0,2.89-.167A23.938,23.938,0,0,0,244,374.56Z" transform="translate(-209.128 -340.936)" fill="#407093"/>
          <path id="Path_192" data-name="Path 192" d="M209.268,334.07c1.452-2.883,5.233-11.069,4.155-16.182l-4.7-1.828-4.7,1.828c-1.111,5.271,2.941,13.807,4.283,16.433Q208.791,334.205,209.268,334.07Z" transform="translate(-191.29 -293.299)" fill="#e4f6ff"/>
          <path id="Path_193" data-name="Path 193" d="M229.884,411.364l-1.9-7.492h-2.228l-1.9,7.472,2.349,2.615q.895-.2,1.763-.474Z" transform="translate(-209.431 -372.879)" fill="#e28086"/>
          <path id="Path_194" data-name="Path 194" d="M244.826,498.966c.195.005.389.009.585.009.226,0,.452,0,.677-.011l1.21-1.337a23.814,23.814,0,0,1-2.935.823Z" transform="translate(-228.019 -457.845)" fill="#dd636e"/>
          <g id="Group_212" data-name="Group 212" transform="translate(8.423 6.014)">
            <g id="Group_211" data-name="Group 211" transform="translate(4.998 13.659)">
              <g id="Group_210" data-name="Group 210">
                <g id="Group_209" data-name="Group 209">
                  <g id="Group_208" data-name="Group 208">
                    <g id="Group_207" data-name="Group 207">
                      <g id="Group_206" data-name="Group 206">
                        <g id="Group_205" data-name="Group 205">
                          <path id="Path_195" data-name="Path 195" d="M221.217,287.342v-4.225h-8.023v4.225c0,2.216,4.012,4.636,4.012,4.636S221.217,289.557,221.217,287.342Z" transform="translate(-213.194 -283.117)" fill="#ffddce"/>
                        </g>
                      </g>
                    </g>
                  </g>
                </g>
              </g>
            </g>
            <path id="Path_196" data-name="Path 196" d="M177.9,141.445h-1.534a1.544,1.544,0,0,1-1.544-1.544v-.845a1.63,1.63,0,0,0-2.142-1.548,12.075,12.075,0,0,1-7.577,0h0a1.63,1.63,0,0,0-2.142,1.548v.846a1.544,1.544,0,0,1-1.544,1.544H159.88v2.525a1.169,1.169,0,0,0,1.169,1.169.384.384,0,0,1,.382.363,7.474,7.474,0,0,0,14.918,0,.384.384,0,0,1,.382-.363,1.169,1.169,0,0,0,1.169-1.169v-2.526Z" transform="translate(-159.88 -137.424)" fill="#ffddce"/>
            <path id="Path_197" data-name="Path 197" d="M255.57,141.448a1.544,1.544,0,0,1-1.544-1.544v-.845a1.63,1.63,0,0,0-2.142-1.548q-.437.144-.882.254v8.341a7.472,7.472,0,0,1-3.724,6.352,7.466,7.466,0,0,0,8.275-6.953.384.384,0,0,1,.382-.363,1.169,1.169,0,0,0,1.168-1.169v-2.525H255.57Z" transform="translate(-239.084 -137.427)" fill="#ffcbbe"/>
          </g>
          <g id="Group_213" data-name="Group 213" transform="translate(10.275 22.761)">
            <path id="Path_198" data-name="Path 198" d="M182.782,316.06l-3.146,2.556,3.3,4.079a1.093,1.093,0,0,0,1.463.056l2.481-2.073Z" transform="translate(-179.636 -316.06)" fill="#f4fbff"/>
            <path id="Path_199" data-name="Path 199" d="M260.825,316.06l-3.927,4.619,2.332,1.994a1.093,1.093,0,0,0,1.467-.042l3.276-4.014Z" transform="translate(-249.655 -316.06)" fill="#f4fbff"/>
          </g>
        </g>
        <path id="Path_200" data-name="Path 200" d="M163.424,316.06l-4.618,2.269a.7.7,0,0,0-.313.948l.9,1.754a1.175,1.175,0,0,1-.214,1.37l-.563.562a1.172,1.172,0,0,0-.288,1.194c1.092,3.33,6.349,8.421,8.339,10.264q.2.005.4.007C165.631,331.622,160.519,320.96,163.424,316.06Z" transform="translate(-150.002 -293.299)" fill="#365e7d"/>
        <path id="Path_201" data-name="Path 201" d="M267.756,322.4a1.174,1.174,0,0,1-.214-1.37l.9-1.754a.7.7,0,0,0-.313-.948l-4.618-2.269c2.9,4.9-2.2,15.556-3.649,18.366q.2,0,.406-.01c1.994-1.846,7.242-6.932,8.333-10.259a1.172,1.172,0,0,0-.288-1.194Z" transform="translate(-242.07 -293.299)" fill="#365e7d"/>
        <path id="Path_202" data-name="Path 202" d="M233.281,365.327l-2.443,2.04,1.245,1.573h2.228l1.245-1.666Z" transform="translate(-215.762 -337.947)" fill="#dd636e"/>
      </g>
    </g>
  </g>
</svg>
