<svg id="Dashboard_dark_icon" data-name="Dashboard dark icon" xmlns="http://www.w3.org/2000/svg" width="19.51" height="16.729" viewBox="0 0 19.51 16.729">
  <path id="Path_25" data-name="Path 25" d="M17.664,20.721H5.85a2.109,2.109,0,0,1-1.63-.777,9.755,9.755,0,1,1,15.015.064,2.035,2.035,0,0,1-1.572.713ZM11.741,5.391A8.267,8.267,0,0,0,6.185,7.516,8.356,8.356,0,0,0,5.3,19.058a.721.721,0,0,0,.557.27H17.664a.657.657,0,0,0,.5-.214,8.31,8.31,0,0,0,1.871-6.519,8.4,8.4,0,0,0-7.308-7.148,8.688,8.688,0,0,0-.987-.055Z" transform="translate(-1.999 -3.992)" fill="#97aecc"/>
  <g id="Group_22" data-name="Group 22" transform="translate(3.484 3.49)">
    <path id="Path_26" data-name="Path 26" d="M24.007,16.472a.7.7,0,0,0-1.381.19,4.85,4.85,0,0,1-.6,3.129.7.7,0,0,0,.252.953.688.688,0,0,0,.348.095.7.7,0,0,0,.6-.348A6.232,6.232,0,0,0,24.007,16.472Z" transform="translate(-11.527 -11.083)" fill="#3c8ef9"/>
    <path id="Path_27" data-name="Path 27" d="M13.271,10.394c.2,0,.4.013.583.03a5.853,5.853,0,0,1,.652.118.7.7,0,1,0,.319-1.356A7.131,7.131,0,0,0,14,9.038c-.245-.023-.49-.038-.727-.038A6.279,6.279,0,0,0,7,15.271a6.185,6.185,0,0,0,.836,3.136.7.7,0,1,0,1.207-.7,4.808,4.808,0,0,1-.649-2.439A4.883,4.883,0,0,1,13.271,10.394Z" transform="translate(-7 -9)" fill="#3c8ef9"/>
    <path id="Path_28" data-name="Path 28" d="M19.35,12.2a.7.7,0,0,0-.985,0L15.73,14.839a1.417,1.417,0,1,0,.985.985L19.35,13.19a.7.7,0,0,0,0-.985Z" transform="translate(-9.102 -9.91)" fill="#3c8ef9"/>
  </g>
</svg>
