<svg xmlns="http://www.w3.org/2000/svg" width="19" height="19" viewBox="0 0 19 19">
  <g id="Driver_Registration_light_icon" data-name="Driver Registration light icon" transform="translate(-34 -537)">
    <path id="driver_1_" data-name="driver (1)" d="M9.5,13.508A5.5,5.5,0,0,0,4.008,19H5.492a3.985,3.985,0,0,1,.7-2.259l1.726,1.726A1.665,1.665,0,0,0,7.83,19h3.34a1.667,1.667,0,0,0-.087-.533l1.726-1.726a3.985,3.985,0,0,1,.7,2.259h1.484A5.5,5.5,0,0,0,9.5,13.508Zm-.533,3.91L7.241,15.691a4,4,0,0,1,4.518,0l-1.726,1.726a1.669,1.669,0,0,0-1.066,0Z" transform="translate(34 537)" fill="#3c8ef9"/>
    <path id="driver_1_2" data-name="driver (1)" d="M16.218,12.282a9.464,9.464,0,0,0-3.61-2.264,5.492,5.492,0,1,0-6.215,0A9.515,9.515,0,0,0,0,19H1.484a8.016,8.016,0,0,1,16.031,0H19a9.438,9.438,0,0,0-2.782-6.718ZM5.492,5.492A4.008,4.008,0,1,1,9.5,9.5,4.012,4.012,0,0,1,5.492,5.492Z" transform="translate(34 537)" fill="#2f2e5d"/>
  </g>
</svg>
