<svg xmlns="http://www.w3.org/2000/svg" width="12.314" height="19.701" viewBox="0 0 12.314 19.701">
  <g id="Geofence_light_icon" data-name="Geofence light icon" transform="translate(-96)">
    <path id="Path_18998" data-name="Path 18998" d="M96.966,9.469l4.433,6.8a.77.77,0,0,0,1.279.015l4.591-6.7,0-.007a6.157,6.157,0,1,0-10.312-.117Zm5.19-7.93A4.618,4.618,0,0,1,106,8.72l-3.937,5.744-3.8-5.832a4.619,4.619,0,0,1,3.9-7.093Z" transform="translate(0 0)" fill="#2f2e5d"/>
    <path id="Path_18999" data-name="Path 18999" d="M179.078,86.157A3.078,3.078,0,1,0,176,83.078,3.082,3.082,0,0,0,179.078,86.157Zm0-4.618a1.539,1.539,0,1,1-1.539,1.539A1.541,1.541,0,0,1,179.078,81.539Z" transform="translate(-76.922 -76.922)" fill="#3c8ef9"/>
    <path id="Path_19000" data-name="Path 19000" d="M107.253,349.97a.77.77,0,0,0-1.041,1.134,1.524,1.524,0,0,1,.562,1.058c0,1.092-1.9,2.309-4.618,2.309s-4.618-1.217-4.618-2.309a1.423,1.423,0,0,1,.5-1,.77.77,0,0,0-1.075-1.1,2.933,2.933,0,0,0-.967,2.1,3.374,3.374,0,0,0,1.966,2.845,9.258,9.258,0,0,0,8.382,0,3.374,3.374,0,0,0,1.966-2.845A2.97,2.97,0,0,0,107.253,349.97Z" transform="translate(0 -336.308)" fill="#3c8ef9"/>
  </g>
</svg>
