<svg xmlns="http://www.w3.org/2000/svg" width="17.984" height="17.986" viewBox="0 0 17.984 17.986">
  <g id="payment_light_icon" data-name="payment light icon" transform="translate(-0.002)">
    <path id="Path_18998" data-name="Path 18998" d="M21.294,14.414h-.4a2.658,2.658,0,0,0-.342-.665h.746a.562.562,0,1,0,0-1.124H18.437c-.021,0-.04,0-.061,0H16.889a.562.562,0,0,0,0,1.124h1.486a1.536,1.536,0,0,1,1.268.668H16.912a.562.562,0,1,0,0,1.124h2.977a1.538,1.538,0,0,1-1.514,1.286H16.889a.562.562,0,0,0-.408.949l3.039,3.2a.562.562,0,1,0,.815-.773L18.2,17.948h.179a2.667,2.667,0,0,0,2.651-2.41h.268a.562.562,0,1,0,0-1.124Z" transform="translate(-10.208 -7.892)" fill="#3c8ef9"/>
    <path id="Path_18999" data-name="Path 18999" d="M8.994,17.986A8.993,8.993,0,1,1,14.281,1.718a.562.562,0,1,1-.661.909,7.858,7.858,0,1,0,2.3,2.628.562.562,0,0,1,.989-.534A9,9,0,0,1,8.994,17.986Z" transform="translate(0 0)" fill="#2f2e5d"/>
    <path id="Path_19000" data-name="Path 19000" d="M40,8.817a.562.562,0,0,1-.428-.2l-.1-.117a.562.562,0,1,1,.84-.747l.115.132A.562.562,0,0,1,40,8.817Z" transform="translate(-24.593 -4.733)"/>
  </g>
</svg>
