<svg id="report_light_icon" data-name="report light icon" xmlns="http://www.w3.org/2000/svg" width="15.959" height="18.569" viewBox="0 0 15.959 18.569">
  <path id="Path_45" data-name="Path 45" d="M16.3,3.882,12.5.156A.544.544,0,0,0,12.12,0H2.529A2.032,2.032,0,0,0,.5,2.03V16.539a2.032,2.032,0,0,0,2.03,2.03h11.9a2.032,2.032,0,0,0,2.03-2.03V4.27a.544.544,0,0,0-.163-.388ZM12.664,1.841l1.919,1.885H12.837a.173.173,0,0,1-.173-.173Zm1.764,15.64H2.529a.943.943,0,0,1-.942-.942V2.03a.943.943,0,0,1,.942-.942h9.047V3.553a1.262,1.262,0,0,0,1.261,1.261H15.37V16.539a.943.943,0,0,1-.942.942Zm0,0" transform="translate(-0.5 0)" fill="#2f2e5d"/>
  <path id="Path_46" data-name="Path 46" d="M106.4,238H98.736a.544.544,0,1,0,0,1.088H106.4a.544.544,0,1,0,0-1.088Zm0,0" transform="translate(-94.649 -229.368)" fill="#3c8ef9"/>
  <path id="Path_47" data-name="Path 47" d="M98.735,299.088h6.253a.544.544,0,1,0,0-1.088H98.735a.544.544,0,0,0,0,1.088Zm0,0" transform="translate(-94.648 -287.192)" fill="#3c8ef9"/>
  <path id="Path_48" data-name="Path 48" d="M105.742,358H98.735a.544.544,0,0,0,0,1.088h7.007a.544.544,0,0,0,0-1.088Zm0,0" transform="translate(-94.648 -345.016)" fill="#3c8ef9"/>
</svg>
