<svg xmlns="http://www.w3.org/2000/svg" width="19.904" height="19.904" viewBox="0 0 19.904 19.904">
  <g id="tracking_dark_icon" data-name="tracking dark icon" transform="translate(-10 -10)">
    <path id="Path_18992" data-name="Path 18992" d="M27.831,70.415a2.073,2.073,0,0,0-1.9,1.244H22.288a2.474,2.474,0,0,0-4.672,0H13.972a2.073,2.073,0,1,0,0,1.659h3.644a2.474,2.474,0,0,0,4.672,0h3.644a2.073,2.073,0,1,0,1.9-2.9Zm-7.879,2.9a.829.829,0,1,1,.829-.829A.829.829,0,0,1,19.952,73.317Z" transform="translate(0 -45.072)" fill="#97aecc"/>
    <path id="Path_18993" data-name="Path 18993" d="M32.472,10a5.8,5.8,0,0,0-4.1,9.91l4.1,3.774,4.106-3.775A5.8,5.8,0,0,0,32.472,10Zm2.933,8.735-2.933,2.7L29.49,18.689a4.09,4.09,0,0,1-1.165-2.884,4.147,4.147,0,0,1,8.294,0A4.11,4.11,0,0,1,35.406,18.735Z" transform="translate(-12.52)" fill="#3c8ef9"/>
    <path id="Path_18994" data-name="Path 18994" d="M42.488,23.333a2.488,2.488,0,1,0,2.488,2.488A2.488,2.488,0,0,0,42.488,23.333Zm0,3.317a.829.829,0,1,1,.829-.829A.829.829,0,0,1,42.488,26.65Z" transform="translate(-22.536 -10.016)" fill="#97aecc"/>
  </g>
</svg>
