<svg xmlns="http://www.w3.org/2000/svg" width="22.684" height="17.029" viewBox="0 0 22.684 17.029">
  <g id="UMS_dark_icon" data-name="UMS dark icon" transform="translate(-1.25 -4.25)">
    <path id="Path_19102" data-name="Path 19102" d="M12.442,5.833a2.8,2.8,0,1,1-2.8,2.8A2.8,2.8,0,0,1,12.442,5.833Zm4.383,2.8a4.383,4.383,0,1,0-4.383,4.383A4.383,4.383,0,0,0,16.825,8.633Z" transform="translate(0.375 0)" fill="#3c8ef9" fill-rule="evenodd"/>
    <path id="Path_19103" data-name="Path 19103" d="M17.388,16.06a14.289,14.289,0,0,0-9.612,0,1.037,1.037,0,0,0-.688.976v1.181a.961.961,0,0,0,1.1.951l.352-.05a28.61,28.61,0,0,1,8.091,0l.352.05a.961.961,0,0,0,1.1-.951V17.036A1.037,1.037,0,0,0,17.388,16.06ZM7.244,14.57a15.872,15.872,0,0,1,10.677,0,2.619,2.619,0,0,1,1.738,2.467v1.181a2.543,2.543,0,0,1-2.9,2.518l-.352-.05a27.019,27.019,0,0,0-7.643,0l-.352.05a2.543,2.543,0,0,1-2.9-2.518V17.036A2.619,2.619,0,0,1,7.244,14.57Z" transform="translate(0.234 0.517)" fill="#3c8ef9" fill-rule="evenodd"/>
    <path id="Path_19104" data-name="Path 19104" d="M17.36,7.386a2.031,2.031,0,1,1,0,4.062.791.791,0,1,0,0,1.583,3.613,3.613,0,1,0,0-7.227.791.791,0,1,0,0,1.583Z" transform="translate(0.843 0.086)" fill="#97aecc" fill-rule="evenodd"/>
    <path id="Path_19105" data-name="Path 19105" d="M18.711,14.03a.791.791,0,0,1,.927-.627,12.646,12.646,0,0,1,1.857.508,2.228,2.228,0,0,1,1.478,2.1v.928A2.168,2.168,0,0,1,20.5,19.082l-.277-.039a.791.791,0,0,1,.224-1.567l.277.04a.585.585,0,0,0,.668-.579v-.928a.645.645,0,0,0-.428-.607,11.055,11.055,0,0,0-1.624-.444A.791.791,0,0,1,18.711,14.03Z" transform="translate(0.961 0.503)" fill="#97aecc" fill-rule="evenodd"/>
    <path id="Path_19106" data-name="Path 19106" d="M6.869,7.386a2.031,2.031,0,0,0,0,4.062.791.791,0,0,1,0,1.583,3.613,3.613,0,0,1,0-7.227.791.791,0,0,1,0,1.583Z" transform="translate(0.11 0.086)" fill="#97aecc" fill-rule="evenodd"/>
    <path id="Path_19107" data-name="Path 19107" d="M5.512,14.03a.791.791,0,0,0-.927-.627,12.64,12.64,0,0,0-1.857.508,2.227,2.227,0,0,0-1.478,2.1v.928a2.168,2.168,0,0,0,2.475,2.146L4,19.043a.791.791,0,0,0-.224-1.567l-.276.04a.585.585,0,0,1-.668-.579v-.928a.645.645,0,0,1,.428-.607,11.06,11.06,0,0,1,1.624-.444.791.791,0,0,0,.627-.927Z" transform="translate(0 0.503)" fill="#97aecc" fill-rule="evenodd"/>
  </g>
</svg>
