<svg xmlns="http://www.w3.org/2000/svg" width="19.299" height="17.354" viewBox="0 0 19.299 17.354">
  <g id="vehicle_l_dark_icon" data-name="vehicle l dark icon" transform="translate(0 -25.799)">
    <path id="Union_18" data-name="Union 18" d="M1.961,4.342V3L.568,3.005A.565.565,0,0,1,.562,1.875l1.417-.008V.566a.566.566,0,1,1,1.131,0V1.91L4.5,1.9a.565.565,0,1,1,.006,1.131l-1.417.008v1.3a.565.565,0,0,1-1.131,0Z" transform="translate(2.297 28.174)" fill="#3c8ef9"/>
    <path id="Path_18996" data-name="Path 18996" d="M19.14,36.609,15.9,33.258a.565.565,0,0,0-.406-.172H13.418V30.647a.565.565,0,0,0-.565-.565h-3.2A4.842,4.842,0,1,0,1.035,33.63s0,.008,0,.011v7.286a.565.565,0,0,0,.565.565H2.8a2.334,2.334,0,0,0,4.467.006h6.152a2.334,2.334,0,0,0,4.465,0h.844a.565.565,0,0,0,.565-.565V37A.565.565,0,0,0,19.14,36.609ZM1.131,30.641a3.711,3.711,0,1,1,3.711,3.712A3.716,3.716,0,0,1,1.131,30.641Zm3.908,11.4a1.223,1.223,0,1,1,1.223-1.223A1.223,1.223,0,0,1,5.039,42.04Zm7.233-1.672H7.329a2.334,2.334,0,0,0-4.58-.006H2.165V34.674A4.839,4.839,0,0,0,9.65,31.213h2.637ZM13.4,34.217h1.848l2.149,2.22h-4v-2.22Zm2.254,7.824a1.223,1.223,0,1,1,1.223-1.223A1.223,1.223,0,0,1,15.656,42.04Zm2.512-1.672h-.221a2.334,2.334,0,0,0-4.545-.156V37.568h4.766Z" fill="#97aecc"/>
  </g>
</svg>
