<?xml version="1.0" standalone="no"?>
<!DOCTYPE svg PUBLIC "-//W3C//DTD SVG 20010904//EN"
 "http://www.w3.org/TR/2001/REC-SVG-20010904/DTD/svg10.dtd">
<svg version="1.0" xmlns="http://www.w3.org/2000/svg"
 width="700.000000pt" height="700.000000pt" viewBox="0 0 700.000000 700.000000"
 preserveAspectRatio="xMidYMid meet">
<metadata>
Created by potrace 1.14, written by Peter Selinger 2001-2017
</metadata>
<g transform="translate(0.000000,700.000000) scale(0.100000,-0.100000)"
fill="#000000" stroke="none">
<path d="M3278 6995 c-1 -1 -41 -6 -87 -9 -202 -16 -441 -61 -651 -121 -131
-38 -370 -122 -385 -136 -5 -5 -15 -9 -21 -9 -21 0 -262 -120 -389 -193 -103
-60 -265 -165 -315 -204 -8 -6 -51 -40 -95 -74 -94 -73 -210 -177 -317 -283
-436 -434 -760 -1007 -912 -1611 -21 -84 -32 -138 -61 -295 -2 -14 -8 -58 -20
-150 -27 -206 -27 -673 -1 -817 2 -10 7 -45 11 -78 4 -32 9 -68 11 -80 2 -11
7 -36 10 -55 28 -176 114 -476 195 -679 372 -931 1138 -1668 2081 -2000 108
-38 282 -88 368 -107 116 -26 260 -53 313 -60 29 -3 63 -8 77 -10 186 -26 650
-25 840 2 687 100 1260 342 1760 745 220 178 438 400 582 594 4 6 18 24 31 40
152 194 340 530 445 795 71 178 147 428 177 580 58 295 72 459 69 760 -1 135
-5 265 -8 290 -4 25 -14 95 -22 155 -8 61 -17 118 -20 128 -5 16 -26 17 -265
17 -143 0 -258 -3 -256 -7 7 -11 45 -245 54 -333 10 -96 10 -514 0 -605 -11
-95 -26 -207 -32 -225 -2 -8 -7 -31 -10 -50 -3 -19 -10 -51 -15 -70 -5 -19
-11 -46 -13 -60 -10 -56 -72 -254 -115 -365 -90 -236 -215 -468 -366 -680 -28
-38 -53 -72 -56 -75 -3 -3 -21 -25 -40 -50 -60 -77 -91 -111 -230 -250 -151
-151 -194 -188 -330 -289 -250 -184 -538 -333 -828 -430 -109 -37 -254 -77
-312 -87 -14 -3 -32 -7 -40 -9 -8 -3 -32 -7 -54 -11 -21 -3 -48 -8 -60 -10
-11 -3 -43 -7 -71 -10 -27 -3 -52 -7 -55 -9 -4 -2 -51 -7 -105 -11 -179 -14
-522 -8 -625 11 -14 3 -44 7 -65 9 -22 2 -87 14 -145 26 -58 11 -116 23 -130
26 -84 17 -346 103 -455 149 -894 381 -1538 1136 -1765 2070 -30 124 -34 145
-50 255 -6 36 -12 79 -15 95 -17 118 -23 388 -12 565 25 394 147 826 336 1185
209 399 475 713 853 1008 54 43 279 189 348 227 233 127 540 247 750 295 75
17 285 56 325 60 28 3 79 9 115 13 137 14 539 7 650 -12 14 -3 43 -7 65 -10
22 -4 51 -8 65 -11 14 -2 42 -7 64 -10 21 -3 41 -7 45 -9 3 -2 22 -7 41 -10
44 -7 236 -60 315 -88 369 -127 749 -348 1019 -591 80 -72 234 -229 287 -292
19 -22 37 -42 42 -43 4 -2 11 -11 16 -20 8 -16 -65 -17 -1035 -19 -1100 -2
-1085 -1 -1239 -49 -97 -31 -301 -128 -325 -155 -3 -3 -27 -20 -55 -39 -27
-18 -95 -79 -150 -134 -228 -229 -398 -569 -471 -941 -2 -11 -6 -31 -9 -45 -2
-14 -7 -47 -11 -75 -3 -27 -8 -58 -10 -68 -4 -21 2 -18 81 43 187 147 484 310
715 393 125 45 371 109 465 123 28 3 59 8 70 10 88 16 277 19 1180 16 567 -1
1211 -4 1433 -6 222 -1 405 0 406 3 2 3 -15 65 -38 136 -225 690 -666 1300
-1251 1731 -61 44 -120 86 -132 92 -12 7 -28 18 -35 24 -13 12 -24 19 -80 51
-13 6 -25 15 -28 18 -9 10 -143 82 -260 140 -243 120 -556 229 -817 284 -98
20 -136 26 -388 60 -43 6 -551 15 -557 10z"/>
<path d="M5005 3843 c0 -71 -2 -144 -5 -163 l-5 -35 -545 -1 c-551 -2 -713 -6
-843 -24 -191 -27 -365 -71 -502 -129 -82 -35 -270 -141 -285 -160 -3 -4 -16
-15 -30 -24 -51 -35 -169 -160 -219 -232 -65 -93 -115 -198 -149 -312 l-26
-88 -4 -827 -3 -828 506 0 c397 0 505 3 506 13 0 6 1 334 2 727 l2 715 24 45
c54 102 156 160 315 176 76 8 1235 11 1247 3 5 -3 10 -82 11 -177 2 -115 6
-168 13 -163 14 11 105 83 130 103 11 9 99 80 195 158 96 78 184 149 195 158
11 9 40 33 65 52 25 19 47 37 50 40 3 3 41 35 85 70 44 36 87 72 97 80 9 8 46
38 82 65 36 28 65 53 65 57 1 4 -56 56 -126 116 -199 170 -554 472 -613 522
-29 25 -91 78 -138 118 -47 39 -88 72 -91 72 -4 0 -7 -57 -6 -127z"/>
</g>
</svg>
