<svg id="battery_" data-name="battery " xmlns="http://www.w3.org/2000/svg" width="8.256" height="14.676" viewBox="0 0 8.256 14.676">
  <path id="Path_19314" data-name="Path 19314" d="M0-.5H3.163V.853H0Z" transform="translate(2.547 1.137)" fill="#feb869"/>
  <g id="battery" transform="translate(0 0)">
    <path id="Path_19315" data-name="Path 19315" d="M118.937,76.841h-5.618A1.32,1.32,0,0,1,112,75.523v-10.2A1.32,1.32,0,0,1,113.319,64h5.618a1.32,1.32,0,0,1,1.319,1.319v10.2A1.32,1.32,0,0,1,118.937,76.841Zm-5.618-11.924a.4.4,0,0,0-.4.4v10.2a.4.4,0,0,0,.4.4h5.618a.4.4,0,0,0,.4-.4v-10.2a.4.4,0,0,0-.4-.4Z" transform="translate(-112 -62.166)" fill="#88879b"/>
    <path id="Path_19316" data-name="Path 19316" d="M180.128,2.752h-3.669A.459.459,0,0,1,176,2.293V1.032A1.033,1.033,0,0,1,177.032,0h2.522a1.033,1.033,0,0,1,1.032,1.032V2.293A.459.459,0,0,1,180.128,2.752Zm-3.21-.917h2.752v-.8a.115.115,0,0,0-.115-.115h-2.522a.115.115,0,0,0-.115.115Z" transform="translate(-174.166)" fill="#88879b"/>
    <path id="Path_19317" data-name="Path 19317" d="M180.128,424.917h-3.669a.459.459,0,0,1,0-.917h3.669a.459.459,0,1,1,0,.917Z" transform="translate(-174.166 -411.847)" fill="#20a223"/>
    <path id="Path_19318" data-name="Path 19318" d="M180.128,360.917h-3.669a.459.459,0,0,1,0-.917h3.669a.459.459,0,1,1,0,.917Z" transform="translate(-174.166 -349.681)" fill="#20a223"/>
    <path id="Path_19319" data-name="Path 19319" d="M180.128,296.917h-3.669a.459.459,0,0,1,0-.917h3.669a.459.459,0,1,1,0,.917Z" transform="translate(-174.166 -287.516)" fill="#20a223"/>
    <path id="Path_19320" data-name="Path 19320" d="M180.128,296.917h-3.669a.459.459,0,0,1,0-.917h3.669a.459.459,0,1,1,0,.917Z" transform="translate(-174.166 -289.35)" fill="#20a223"/>
  </g>
</svg>
