<svg xmlns="http://www.w3.org/2000/svg" width="16.413" height="16.412" viewBox="0 0 16.413 16.412">
  <g id="call_vehicle" data-name="call vehicle" transform="translate(16289.958 18009.699)">
    <path id="Path_19325" data-name="Path 19325" d="M113.157,108.343l-.008-.008,0,0-.919-.919a1.368,1.368,0,0,0-1.93,0l-.005.005-.488.489-2.249-2.25.488-.488.005-.005a1.369,1.369,0,0,0,0-1.93l-.918-.918-.005-.005a1.368,1.368,0,0,0-1.93,0l-.01.011-.421.421-.4.4a2.823,2.823,0,0,0-.428,2.921,8.377,8.377,0,0,0,2.126,3.345,7.158,7.158,0,0,0,4.585,2.326,2.311,2.311,0,0,0,1.68-.626l.523-.523.306-.306,0,0a1.37,1.37,0,0,0,.014-1.916l-.008-.009Zm-.684,1.243-.009.009-.3.3-.521.521a1.362,1.362,0,0,1-1,.346,6.3,6.3,0,0,1-3.9-2.044,7.407,7.407,0,0,1-1.885-2.945,1.969,1.969,0,0,1,.189-1.962l.4-.4.428-.428,0,0a.406.406,0,0,1,.567,0l0,0,.921.921a.407.407,0,0,1,0,.574h0l-.828.828a.481.481,0,0,0,0,.68l2.93,2.93a.481.481,0,0,0,.68,0l.823-.823.009-.009a.406.406,0,0,1,.572,0l.919.919,0,0,0,0A.407.407,0,0,1,112.473,109.586Zm0,0" transform="translate(-16390.361 -18108.34)" fill="#20a223"/>
    <path id="Path_19326" data-name="Path 19326" d="M14.008,2.4A8.206,8.206,0,0,0,2.4,14.009,8.206,8.206,0,0,0,14.008,2.4Zm-5.8,13.047A7.244,7.244,0,1,1,15.45,8.206a7.253,7.253,0,0,1-7.244,7.244Zm0,0" transform="translate(-16289.957 -18009.699)" fill="#20a223"/>
  </g>
</svg>
