<svg xmlns="http://www.w3.org/2000/svg" width="19.666" height="20" viewBox="0 0 19.666 20">
  <g id="Current_Speed" data-name="Current Speed" transform="translate(-1.25 -1.214)">
    <path id="Path_18995" data-name="Path 18995" d="M11.62,21.5a8.079,8.079,0,0,1-4.643-1.457.7.7,0,0,1,.8-1.143,6.733,6.733,0,1,0,0-11.051.7.7,0,0,1-.8-1.143A8.126,8.126,0,1,1,11.62,21.5Z" transform="translate(-0.387 -0.288)" fill="#3c8ef8"/>
    <path id="Path_18996" data-name="Path 18996" d="M6.661,15.143H2.947a.7.7,0,1,1,0-1.393H6.661a.7.7,0,1,1,0,1.393Z" transform="translate(-0.071 -0.894)" fill="#3c8ef8"/>
    <path id="Path_18997" data-name="Path 18997" d="M7.221,12.143H1.947a.7.7,0,1,1,0-1.393H7.221a.7.7,0,1,1,0,1.393Z" transform="translate(0 -0.68)" fill="#3c8ef8"/>
    <path id="Path_18998" data-name="Path 18998" d="M7.519,18.143H1.947a.7.7,0,1,1,0-1.393H7.519a.7.7,0,1,1,0,1.393Z" transform="translate(0 -1.108)" fill="#3c8ef8"/>
    <path id="Path_18999" data-name="Path 18999" d="M21.148,3.468l-3.131-2a1.628,1.628,0,0,0-2.245.5l-.5.783a1.626,1.626,0,0,0,.5,2.244l3.133,2a1.629,1.629,0,0,0,2.243-.5l.5-.783a1.628,1.628,0,0,0-.5-2.244Z" transform="translate(-0.982)" fill="#3c8ef8"/>
    <path id="Path_19000" data-name="Path 19000" d="M16.786,7.935A.7.7,0,0,1,16.2,6.864l1-1.566a.7.7,0,1,1,1.175.749l-1,1.565a.694.694,0,0,1-.588.322Z" transform="translate(-1.059 -0.268)" fill="#3c8ef8"/>
    <path id="Path_19001" data-name="Path 19001" d="M11.59,8.25A5.3,5.3,0,1,0,15.376,9.8,5.34,5.34,0,0,0,11.59,8.25ZM13.9,12.5l-.948.823a1.374,1.374,0,0,1,.027.264,1.415,1.415,0,1,1-.944-1.312l.951-.827A.7.7,0,0,1,13.9,12.5Z" transform="translate(-0.357 -0.502)" fill="#3c8ef8"/>
  </g>
</svg>
