<svg xmlns="http://www.w3.org/2000/svg" width="10.33" height="18.364" viewBox="0 0 10.33 18.364">
  <path id="Distance" d="M116.017,11.493V6.87l-1.162,1.162a1.148,1.148,0,1,1-1.623-1.623l3.122-3.122a1.148,1.148,0,0,1,1.623,0L121.1,6.41a1.148,1.148,0,1,1-1.623,1.623L118.312,6.87v4.623l1.162-1.162a1.148,1.148,0,0,1,1.623,1.623l-3.122,3.122a1.148,1.148,0,0,1-1.623,0l-3.122-3.122a1.148,1.148,0,0,1,1.623-1.623ZM112,17.216a1.148,1.148,0,0,0,1.148,1.148h8.034a1.148,1.148,0,0,0,0-2.3h-8.034A1.148,1.148,0,0,0,112,17.216Zm0-16.068A1.148,1.148,0,0,0,113.148,2.3h8.034a1.148,1.148,0,0,0,0-2.3h-8.034A1.148,1.148,0,0,0,112,1.148Z" transform="translate(-112)" fill="#3c8ef8"/>
</svg>
