<svg xmlns="http://www.w3.org/2000/svg" width="14.9" height="23.338" viewBox="0 0 14.9 23.338">
  <g id="_x31_9" transform="translate(23.846 -5) rotate(90)">
    <path id="Path_78" data-name="Path 78" d="M27.811,17.061l-5.3,6.361a.964.964,0,0,1-.848.424,1.137,1.137,0,0,1-.636-.212,1.031,1.031,0,0,1-.106-1.484l3.817-4.665H11.06a1.06,1.06,0,1,1,0-2.12H24.63L20.814,10.7A1.052,1.052,0,0,1,22.4,9.321l5.3,6.361A1,1,0,0,1,27.811,17.061Z" transform="translate(0.301 0)" fill="#89879f"/>
    <path id="Path_79" data-name="Path 79" d="M8.181,17.12H6.06a1.06,1.06,0,0,1,0-2.12h2.12a1,1,0,0,1,1.06,1.06A1.062,1.062,0,0,1,8.181,17.12Z" transform="translate(0 0.364)" fill="#89879f"/>
  </g>
</svg>
