<svg id="location_vehicle" data-name="location vehicle" xmlns="http://www.w3.org/2000/svg" width="12.764" height="15.088" viewBox="0 0 12.764 15.088">
  <g id="Group_16603" data-name="Group 16603" transform="translate(0)">
    <g id="Group_16602" data-name="Group 16602" transform="translate(0)">
      <path id="Path_19347" data-name="Path 19347" d="M50.345,1.869A6.382,6.382,0,0,0,39.451,6.382c0,3.448,3.26,6.316,5.012,7.857.243.214.454.4.621.555a1.1,1.1,0,0,0,1.5,0c.167-.156.378-.341.621-.555,1.752-1.541,5.012-4.409,5.012-7.857A6.34,6.34,0,0,0,50.345,1.869ZM46.618,13.575c-.249.219-.464.408-.641.573a.213.213,0,0,1-.29,0c-.177-.165-.392-.354-.641-.573C43.4,12.127,40.335,9.43,40.335,6.382a5.5,5.5,0,0,1,11,0C51.33,9.43,48.265,12.127,46.618,13.575Z" transform="translate(-39.451)" fill="#88879b"/>
    </g>
  </g>
  <g id="Group_16605" data-name="Group 16605" transform="translate(3.569 3.328)">
    <g id="Group_16604" data-name="Group 16604">
      <path id="Path_19348" data-name="Path 19348" d="M163.382,112.938a2.812,2.812,0,1,0,2.812,2.812A2.815,2.815,0,0,0,163.382,112.938Zm0,4.741a1.928,1.928,0,1,1,1.928-1.928A1.931,1.931,0,0,1,163.382,117.679Z" transform="translate(-160.57 -112.938)" fill="#88879b"/>
    </g>
  </g>
</svg>
