<svg id="network" xmlns="http://www.w3.org/2000/svg" width="13.613" height="13.615" viewBox="0 0 13.613 13.615">
  <path id="Path_19309" data-name="Path 19309" d="M7.32,3.088A.68.68,0,0,0,6.776,2H2.692a.68.68,0,0,0-.544,1.088L4.053,5.629v9.3a.681.681,0,1,0,1.361,0v-9.3Zm-1.906.273-.681.909-.681-.909Z" transform="translate(-2.012 -2)" fill="#88879b"/>
  <path id="Path_19310" data-name="Path 19310" d="M256.681,205.2a.682.682,0,0,0-.681.681v6.807a.681.681,0,1,0,1.361,0v-6.807A.682.682,0,0,0,256.681,205.2Z" transform="translate(-249.193 -199.754)" fill="#20a223"/>
  <path id="Path_19311" data-name="Path 19311" d="M155.081,281.4a.682.682,0,0,0-.681.681v4.765a.681.681,0,0,0,1.361,0v-4.765A.682.682,0,0,0,155.081,281.4Z" transform="translate(-150.316 -273.912)" fill="#20a223"/>
  <path id="Path_19312" data-name="Path 19312" d="M358.281,103.6a.682.682,0,0,0-.681.681v9.53a.681.681,0,1,0,1.361,0v-9.53A.682.682,0,0,0,358.281,103.6Z" transform="translate(-348.07 -100.877)" fill="#20a223"/>
  <path id="Path_19313" data-name="Path 19313" d="M459.881,2a.682.682,0,0,0-.681.681V14.934a.681.681,0,1,0,1.361,0V2.681A.682.682,0,0,0,459.881,2Z" transform="translate(-446.947 -2)" fill="#20a223"/>
</svg>
