<svg id="ON_vehicle" data-name="ON vehicle" xmlns="http://www.w3.org/2000/svg" width="8.244" height="16.236" viewBox="0 0 8.244 16.236">
  <g id="Group_16595" data-name="Group 16595" transform="translate(0)">
    <path id="Path_19321" data-name="Path 19321" d="M133.891.422A1.36,1.36,0,0,0,132.91,0h-5.579a1.36,1.36,0,0,0-.981.422,1.244,1.244,0,0,0-.35.926l.254,5.072a1.357,1.357,0,0,0,1.331,1.316h.316v.317a.953.953,0,0,0,.634.9v6.018a.317.317,0,0,0,.093.224l.951.951a.317.317,0,0,0,.224.093h.634a.317.317,0,0,0,.224-.093l.951-.951a.317.317,0,0,0,.093-.224v-.634a.317.317,0,0,0-.033-.142l-.246-.492.246-.492a.317.317,0,0,0,.033-.142v-.634a.317.317,0,0,0-.033-.142l-.246-.492.246-.492a.317.317,0,0,0,.033-.142v-.634a.317.317,0,0,0-.033-.142l-.246-.492.246-.492a.317.317,0,0,0,.033-.142v-.31a.953.953,0,0,0,.634-.9V7.735h.316a1.357,1.357,0,0,0,1.331-1.316l.254-5.072a1.244,1.244,0,0,0-.35-.926Zm-3.1,9.614.284.567v.485l-.284.567a.317.317,0,0,0,0,.284l.284.567v.485l-.284.567a.317.317,0,0,0,0,.284l.284.567v.428l-.766.766h-.372l-.766-.766V9h.634V11.8a.317.317,0,1,0,.634,0V9h.634v.181l-.284.567a.317.317,0,0,0,0,.284Zm2.566-3.647a.716.716,0,0,1-.7.713h-1.109a.317.317,0,0,0,0,.634h.159v.317a.317.317,0,0,1-.317.317h-2.537a.317.317,0,0,1-.317-.317V7.735h.159a.317.317,0,0,0,0-.634h-1.109a.716.716,0,0,1-.7-.713l-.254-5.072a.616.616,0,0,1,.176-.457.724.724,0,0,1,.522-.225h5.579a.723.723,0,0,1,.522.225.616.616,0,0,1,.176.457Z" transform="translate(-125.998)" fill="#20a223"/>
    <path id="Path_19322" data-name="Path 19322" d="M186.951,41.9h2.537a.951.951,0,0,0,0-1.9h-2.537a.951.951,0,0,0,0,1.9Zm0-1.268h2.537a.317.317,0,0,1,0,.634h-2.537a.317.317,0,0,1,0-.634Z" transform="translate(-184.097 -38.733)" fill="#20a223"/>
    <path id="Path_19323" data-name="Path 19323" d="M185.439,146.966h-.317a.317.317,0,0,0-.317.317h-.317a.317.317,0,0,0-.317-.317h-.317a.317.317,0,0,0-.317.317h-.317a.317.317,0,0,0-.317-.317h-.317a.317.317,0,0,0-.317.317h-.317a.317.317,0,0,0-.317-.317h-.317a.317.317,0,1,0,0,.634h.317a.317.317,0,0,0,.317.317h.317a.317.317,0,0,0,.317-.317h.317a.317.317,0,0,0,.317.317h.317a.317.317,0,0,0,.317-.317h.317a.317.317,0,0,0,.317.317h.317a.317.317,0,0,0,.317-.317h.317a.317.317,0,1,0,0-.634Z" transform="translate(-179.255 -142.306)" fill="#20a223"/>
    <path id="Path_19324" data-name="Path 19324" d="M246.314,223.932h0a.317.317,0,1,0,.317.317A.317.317,0,0,0,246.314,223.932Z" transform="translate(-242.192 -216.831)" fill="#20a223"/>
  </g>
</svg>
