<svg xmlns="http://www.w3.org/2000/svg" width="12.374" height="14.217" viewBox="0 0 12.374 14.217">
  <path id="share" d="M10.047,9.564a2.322,2.322,0,0,0-1.721.762L4.495,7.953a2.318,2.318,0,0,0,0-1.688L8.326,3.892a2.327,2.327,0,1,0-.447-.721L4.047,5.544a2.327,2.327,0,1,0,0,3.13l3.831,2.373a2.327,2.327,0,1,0,2.168-1.483ZM8.568,2.328a1.479,1.479,0,1,1,1.479,1.479A1.48,1.48,0,0,1,8.568,2.328ZM2.327,8.588A1.479,1.479,0,1,1,3.805,7.109,1.48,1.48,0,0,1,2.327,8.588Zm6.241,3.3a1.479,1.479,0,1,1,1.479,1.479A1.48,1.48,0,0,1,8.568,11.89Zm0,0" fill="#605e7d"/>
</svg>
