<svg xmlns="http://www.w3.org/2000/svg" width="131.217" height="120.195" viewBox="0 0 131.217 120.195">
  <g id="sms" transform="translate(0 -19.13)">
    <path id="Path_23057" data-name="Path 23057" d="M131.217,80.425v59.138a17.661,17.661,0,0,1-17.642,17.64H61.9L23.4,182.98V157.2H17.642A17.661,17.661,0,0,1,0,139.563V80.425a17.661,17.661,0,0,1,17.642-17.64h95.932a17.661,17.661,0,0,1,17.642,17.64Zm0,0" transform="translate(0 -43.656)" fill="#f4d34e"/>
    <path id="Path_23058" data-name="Path 23058" d="M280.94,80.425v59.138A17.661,17.661,0,0,1,263.3,157.2H215.332V62.785H263.3A17.661,17.661,0,0,1,280.94,80.425Zm0,0" transform="translate(-149.723 -43.656)" fill="#ffa41f"/>
    <path id="Path_23059" data-name="Path 23059" d="M122.75,166.391h56.416v9.141H122.75Zm0,0" transform="translate(-85.35 -115.694)" fill="#ffa001"/>
    <path id="Path_23060" data-name="Path 23060" d="M122.75,239.07h56.416v9.141H122.75Zm0,0" transform="translate(-85.35 -166.229)" fill="#ffa001"/>
    <path id="Path_23062" data-name="Path 23062" d="M215.328,166.391h28.209v9.141H215.328Zm0,0" transform="translate(-149.72 -115.694)" fill="#f87f02"/>
    <path id="Path_23063" data-name="Path 23063" d="M215.328,239.07h28.209v9.141H215.328Zm0,0" transform="translate(-149.72 -166.229)" fill="#f87f02"/>
  </g>
</svg>
